<?xml version="1.0" encoding="utf-8"?>
<!-- Generator: Adobe Illustrator 16.0.0, SVG Export Plug-In . SVG Version: 6.00 Build 0)  -->
<!DOCTYPE svg PUBLIC "-//W3C//DTD SVG 1.1//EN" "http://www.w3.org/Graphics/SVG/1.1/DTD/svg11.dtd">
<svg version="1.1" id="Layer_1" xmlns="http://www.w3.org/2000/svg" xmlns:xlink="http://www.w3.org/1999/xlink" x="0px" y="0px"
	 width="512.5px" height="1292.517px" viewBox="0 0 512.5 1292.517" enable-background="new 0 0 512.5 1292.517"
	 xml:space="preserve">
<radialGradient id="SVGID_1_" cx="99.5425" cy="1292.6753" r="313.7722" fx="53.3353" fy="1221.2672" gradientTransform="matrix(0.7776 0 0 -0.7776 140.558 1223.1462)" gradientUnits="userSpaceOnUse">
	<stop  offset="0.054" style="stop-color:#FFFFFF"/>
	<stop  offset="0.1623" style="stop-color:#FBFCF5"/>
	<stop  offset="0.3551" style="stop-color:#EDF4D6"/>
	<stop  offset="0.6098" style="stop-color:#D6E6A5"/>
	<stop  offset="0.9135" style="stop-color:#B6D361"/>
	<stop  offset="1" style="stop-color:#ADCD4B"/>
</radialGradient>
<path fill="url(#SVGID_1_)" d="M243.99,0c134.717,0,243.988,109.424,243.988,243.997c0,134.856-109.271,243.986-243.988,243.986
	C109.316,487.983,0,378.853,0,243.997C0,109.424,109.316,0,243.99,0z"/>
<g>
	<g>
		<polygon fill="#B4ABD4" points="131.41,1292.014 7.753,1223.464 7.753,1138.807 131.41,1201.525 		"/>
		<g>
			<path fill="#422564" d="M132.167,1290.719c-18.793-10.418-37.586-20.837-56.379-31.255
				c-22.015-12.203-44.029-24.407-66.044-36.611c-0.411-0.229-0.822-0.456-1.233-0.684c0.248,0.432,0.496,0.863,0.743,1.295
				c0-24.936,0-49.87,0-74.805c0-3.284,0-6.568,0-9.853c-0.752,0.432-1.505,0.863-2.257,1.295
				c19.421,9.851,38.842,19.7,58.263,29.551c21.62,10.966,43.239,21.931,64.859,32.896c0.178,0.09,0.356,0.181,0.535,0.271
				c-0.248-0.432-0.496-0.863-0.743-1.295c0,24.941,0,49.883,0,74.824c0,5.222,0,10.443,0,15.665c0,1.935,3,1.935,3,0
				c0-24.941,0-49.883,0-74.824c0-5.222,0-10.443,0-15.665c0-0.504-0.28-1.061-0.743-1.295
				c-19.421-9.851-38.842-19.701-58.263-29.551c-21.62-10.966-43.239-21.931-64.859-32.896c-0.178-0.09-0.356-0.181-0.535-0.271
				c-0.997-0.506-2.257,0.106-2.257,1.295c0,24.935,0,49.87,0,74.806c0,3.283,0,6.567,0,9.852c0,0.52,0.284,1.041,0.743,1.295
				c18.793,10.418,37.586,20.836,56.379,31.254c22.015,12.204,44.029,24.408,66.044,36.612c0.411,0.229,0.822,0.456,1.233,0.684
				C132.346,1294.248,133.859,1291.657,132.167,1290.719z"/>
		</g>
	</g>
	<g>
		<g>
			<g>
				<polygon fill="#2D2B7D" points="510.766,1173.547 131.41,1292.014 131.41,1201.525 510.541,1085.662 				"/>
				<g>
					<path fill="#422564" d="M510.367,1172.101c-9.471,2.957-18.94,5.914-28.41,8.872c-23.645,7.384-47.288,14.768-70.933,22.15
						c-30.668,9.577-61.336,19.155-92.005,28.732c-30.543,9.538-61.086,19.076-91.629,28.614
						c-23.269,7.267-46.537,14.533-69.806,21.799c-8.858,2.767-17.715,5.532-26.573,8.299c0.633,0.482,1.266,0.964,1.899,1.446
						c0-24.941,0-49.883,0-74.824c0-5.222,0-10.443,0-15.665c-0.367,0.482-0.734,0.964-1.101,1.446
						c9.509-2.906,19.019-5.812,28.528-8.718c23.728-7.252,47.456-14.503,71.184-21.754c30.748-9.396,61.496-18.793,92.243-28.19
						c30.567-9.341,61.135-18.683,91.703-28.024c23.188-7.086,46.376-14.173,69.564-21.259c8.636-2.64,17.272-5.278,25.908-7.918
						c-0.633-0.482-1.266-0.964-1.898-1.446c0.063,24.965,0.128,49.93,0.191,74.895c0.011,4.331,0.022,8.661,0.033,12.991
						c0.005,1.935,3.005,1.935,3,0c-0.063-24.965-0.128-49.93-0.191-74.895c-0.011-4.331-0.022-8.661-0.033-12.991
						c-0.002-0.954-0.959-1.733-1.898-1.446c-9.51,2.906-19.019,5.812-28.528,8.718c-23.728,7.252-47.456,14.503-71.185,21.754
						c-30.747,9.396-61.495,18.794-92.242,28.19c-30.567,9.341-61.135,18.683-91.703,28.024
						c-23.188,7.086-46.376,14.173-69.565,21.259c-8.636,2.64-17.272,5.278-25.909,7.918c-0.641,0.195-1.101,0.765-1.101,1.446
						c0,24.941,0,49.883,0,74.824c0,5.222,0,10.443,0,15.665c0,0.95,0.962,1.739,1.899,1.446c9.47-2.957,18.94-5.914,28.41-8.872
						c23.644-7.384,47.288-14.768,70.932-22.15c30.668-9.577,61.336-19.155,92.005-28.732c30.543-9.538,61.086-19.076,91.63-28.614
						c23.269-7.267,46.537-14.533,69.806-21.799c8.857-2.767,17.715-5.532,26.572-8.299
						C513.005,1174.419,512.219,1171.523,510.367,1172.101z"/>
				</g>
			</g>
		</g>
	</g>
	<g>
		<g>
			<g>
				<polygon fill="#5A469C" points="510.541,1085.662 131.41,1201.525 7.753,1138.807 357.411,1044.655 				"/>
				<g>
					<path fill="#422564" d="M510.143,1084.215c-9.615,2.938-19.23,5.877-28.845,8.814c-23.96,7.322-47.919,14.645-71.879,21.967
						c-30.976,9.466-61.952,18.933-92.928,28.399c-30.665,9.371-61.329,18.742-91.994,28.113
						c-23.025,7.036-46.05,14.072-69.075,21.109c-6.358,1.943-12.716,3.886-19.074,5.829c-1.489,0.455-2.979,0.91-4.468,1.365
						c-0.272,0.083-0.544,0.167-0.817,0.25c0.71-0.218,1.585,0.411,0.423-0.179c-22.024-11.17-44.048-22.341-66.071-33.511
						c-18.968-9.62-37.937-19.241-56.905-28.861c-0.119,0.913-0.239,1.827-0.358,2.741c10.492-2.825,20.985-5.65,31.478-8.476
						c25.573-6.886,51.146-13.772,76.718-20.658c31.795-8.562,63.59-17.123,95.385-25.685c29.16-7.852,58.32-15.703,87.48-23.556
						c17.667-4.757,35.334-9.515,53.002-14.271c1.583-0.427,3.166-0.853,4.749-1.279c0.271-0.072,0.542-0.146,0.813-0.219
						c-0.868,0.233-0.869-0.037,0.033,0.205c7.923,2.122,15.846,4.243,23.769,6.365c30.287,8.11,60.575,16.222,90.862,24.332
						c12.566,3.365,25.134,6.73,37.701,10.096c1.871,0.501,2.664-2.393,0.797-2.893c-19.66-5.265-39.32-10.53-58.98-15.795
						c-28.111-7.527-56.222-15.056-84.333-22.583c-2.922-0.783-5.844-1.565-8.765-2.348c-0.857-0.229-1.535-0.365-2.401-0.133
						c-4.131,1.112-8.262,2.225-12.393,3.337c-20.955,5.643-41.911,11.285-62.866,16.929c-30.5,8.212-61,16.425-91.5,24.638
						c-31.186,8.397-62.373,16.795-93.559,25.192c-23.015,6.197-46.03,12.395-69.045,18.592c-6.582,1.771-13.163,3.544-19.744,5.316
						c-1.203,0.324-1.539,2.143-0.358,2.741c19.564,9.923,39.129,19.847,58.693,29.77c21.516,10.912,43.033,21.825,64.549,32.738
						c1.944,0.985,5.002-0.688,6.908-1.27c6.358-1.943,12.715-3.886,19.073-5.829c23.025-7.036,46.05-14.073,69.076-21.109
						c30.664-9.371,61.329-18.742,91.993-28.113c30.977-9.467,61.952-18.933,92.929-28.399
						c23.959-7.322,47.919-14.644,71.878-21.966c9.615-2.938,19.23-5.877,28.845-8.815
						C512.784,1086.544,511.997,1083.648,510.143,1084.215z"/>
				</g>
			</g>
		</g>
	</g>
</g>
<g>
	<g>
		<polygon fill="#B4ABD4" points="131.41,1151.377 7.753,1081.913 7.753,999.961 131.41,1063.924 		"/>
		<g>
			<path fill="#422564" d="M132.167,1150.083c-18.725-10.52-37.45-21.038-56.175-31.557c-22.052-12.388-44.104-24.776-66.157-37.164
				c-0.442-0.248-0.883-0.496-1.326-0.744c0.248,0.432,0.496,0.863,0.743,1.295c0-24.809,0-49.617,0-74.427c0-2.508,0-5.016,0-7.524
				c-0.752,0.432-1.505,0.863-2.257,1.295c19.279,9.973,38.558,19.945,57.837,29.917c21.717,11.233,43.435,22.467,65.152,33.7
				c0.223,0.115,0.445,0.23,0.668,0.346c-0.248-0.432-0.496-0.863-0.743-1.295c0,24.935,0,49.868,0,74.803c0,4.217,0,8.434,0,12.65
				c0,1.935,3,1.935,3,0c0-24.935,0-49.868,0-74.803c0-4.217,0-8.434,0-12.65c0-0.507-0.281-1.056-0.743-1.295
				c-19.279-9.973-38.558-19.945-57.837-29.917c-21.717-11.233-43.435-22.467-65.152-33.7c-0.223-0.115-0.445-0.23-0.668-0.346
				c-0.995-0.515-2.257,0.113-2.257,1.295c0,24.809,0,49.617,0,74.427c0,2.508,0,5.016,0,7.524c0,0.521,0.285,1.038,0.743,1.295
				c18.725,10.52,37.45,21.038,56.175,31.557c22.052,12.388,44.104,24.776,66.157,37.164c0.442,0.248,0.883,0.496,1.326,0.744
				C132.342,1153.622,133.854,1151.03,132.167,1150.083z"/>
		</g>
	</g>
	<g>
		<polygon fill="#2D2B7D" points="373.022,1079.39 131.452,1151.377 131.41,1063.924 373.022,999.582 		"/>
		<g>
			<path fill="#422564" d="M372.624,1077.944c-13.893,4.14-27.784,8.279-41.677,12.419c-29.797,8.88-59.593,17.759-89.39,26.638
				c-27.88,8.309-55.761,16.617-83.642,24.926c-8.954,2.668-17.909,5.337-26.863,8.005c0.633,0.482,1.266,0.964,1.899,1.446
				c-0.012-24.935-0.024-49.868-0.036-74.803c-0.002-4.217-0.004-8.434-0.006-12.65c-0.367,0.482-0.734,0.964-1.101,1.446
				c14.093-3.753,28.187-7.506,42.28-11.26c30.111-8.019,60.222-16.037,90.333-24.056c27.874-7.423,55.749-14.847,83.624-22.27
				c8.458-2.253,16.917-4.505,25.375-6.758c-0.633-0.482-1.266-0.964-1.898-1.446c0,24.632,0,49.265,0,73.896
				c0,1.971,0,3.941,0,5.912c0,1.935,3,1.935,3,0c0-24.632,0-49.265,0-73.896c0-1.971,0-3.941,0-5.912
				c0-0.981-0.957-1.697-1.898-1.446c-14.094,3.753-28.187,7.506-42.28,11.259c-30.111,8.02-60.222,16.038-90.333,24.057
				c-27.875,7.423-55.749,14.847-83.624,22.27c-8.458,2.253-16.917,4.505-25.375,6.758c-0.644,0.171-1.102,0.783-1.101,1.446
				c0.012,24.935,0.023,49.868,0.036,74.803c0.002,4.217,0.004,8.434,0.006,12.65c0,0.96,0.96,1.727,1.899,1.446
				c13.892-4.14,27.784-8.279,41.676-12.419c29.796-8.88,59.593-17.759,89.389-26.638c27.881-8.309,55.762-16.617,83.643-24.926
				c8.954-2.668,17.908-5.336,26.862-8.005C375.271,1080.286,374.482,1077.39,372.624,1077.944z"/>
		</g>
	</g>
	<g>
		<polygon fill="#5A469C" points="373.022,999.582 131.41,1063.964 7.753,999.961 224.152,949.49 		"/>
		<g>
			<path fill="#422564" d="M372.624,998.135c-14.094,3.755-28.187,7.511-42.28,11.267c-30.111,8.023-60.222,16.047-90.333,24.07
				c-27.875,7.429-55.749,14.856-83.624,22.284c-7.395,1.971-14.789,3.94-22.184,5.911c-1.063,0.283-2.126,0.566-3.19,0.85
				c0.77-0.205,1.569,0.367,0.854-0.003c-0.325-0.168-0.649-0.336-0.974-0.505c-1.204-0.622-2.407-1.245-3.61-1.868
				c-24.968-12.923-49.936-25.847-74.904-38.77c-14.623-7.568-29.246-15.137-43.869-22.705c-0.119,0.913-0.239,1.827-0.358,2.741
				c15.567-3.631,31.134-7.262,46.701-10.893c31.144-7.264,62.288-14.527,93.432-21.791c23.385-5.454,46.77-10.908,70.154-16.362
				c1.899-0.443,3.798-0.886,5.697-1.329c1-0.233-0.663-0.19-0.223-0.043c0.682,0.229,1.364,0.459,2.046,0.688
				c8.992,3.026,17.984,6.052,26.977,9.077c29.65,9.978,59.301,19.954,88.951,29.931c10.245,3.447,20.491,6.895,30.736,10.342
				c1.839,0.619,2.621-2.279,0.797-2.893c-19.178-6.453-38.356-12.906-57.535-19.359c-27.333-9.197-54.666-18.395-81.999-27.592
				c-2.799-0.941-5.597-1.883-8.396-2.824c-0.995-0.335-1.687-0.328-2.698-0.093c-6.43,1.5-12.859,2.999-19.289,4.499
				c-28.101,6.554-56.201,13.108-84.301,19.662c-28.976,6.758-57.951,13.516-86.926,20.274c-8.308,1.938-16.615,3.875-24.923,5.812
				c-1.239,0.289-1.502,2.149-0.358,2.741c19.279,9.979,38.558,19.957,57.837,29.936c21.717,11.241,43.435,22.481,65.152,33.722
				c1.044,0.54,1.784,0.508,2.877,0.217c2.135-0.569,4.27-1.138,6.405-1.707c9.059-2.414,18.118-4.828,27.177-7.242
				c29.287-7.804,58.574-15.607,87.86-23.412c28.968-7.719,57.935-15.438,86.902-23.156c10.738-2.862,21.477-5.724,32.215-8.585
				C375.289,1000.531,374.495,997.636,372.624,998.135z"/>
		</g>
	</g>
</g>
<g>
	<g>
		<g>
			<polygon fill="#5A469C" points="476.398,835.94 133.928,919.55 7.753,868.81 306.994,790.208 			"/>
			<g>
				<path fill="#422564" d="M476,834.494c-10.696,2.611-21.392,5.223-32.088,7.834c-25.918,6.327-51.836,12.655-77.754,18.982
					c-31.887,7.785-63.773,15.569-95.66,23.354c-28.603,6.982-57.204,13.966-85.806,20.948
					c-16.062,3.922-32.125,7.844-48.188,11.765c-0.972,0.237-1.944,0.475-2.917,0.712c0.714-0.174,0.928,0.091,0.024-0.273
					c-1.064-0.428-2.129-0.855-3.194-1.284c-10.575-4.253-21.15-8.505-31.725-12.758c-27.318-10.985-54.636-21.972-81.954-32.957
					c-2.862-1.151-5.725-2.302-8.587-3.453c0,0.964,0,1.929,0,2.893c11.878-3.12,23.757-6.24,35.636-9.36
					c27.673-7.27,55.347-14.538,83.021-21.808c31.525-8.28,63.05-16.562,94.576-24.843c23.434-6.155,46.868-12.311,70.301-18.466
					c4.95-1.3,9.9-2.601,14.851-3.9c0.28-0.074,0.561-0.147,0.84-0.221c-0.959,0.252-0.816-0.015,0.08,0.228
					c2.587,0.698,5.175,1.396,7.762,2.096c26.726,7.215,53.451,14.43,80.177,21.645c25.151,6.79,50.304,13.58,75.455,20.369
					c1.717,0.464,3.434,0.928,5.15,1.391c1.87,0.505,2.663-2.389,0.797-2.893c-18.226-4.92-36.451-9.841-54.677-14.761
					c-29.984-8.095-59.97-16.189-89.955-24.284c-7.827-2.113-15.655-4.227-23.483-6.34c-2.457-0.663-4.63,0.32-7.062,0.959
					c-18.854,4.953-37.707,9.905-56.56,14.857c-30.409,7.987-60.817,15.975-91.225,23.962c-30.02,7.886-60.041,15.771-90.061,23.656
					c-17.689,4.646-35.377,9.293-53.066,13.939c-1.118,0.294-2.235,0.587-3.354,0.881c-1.56,0.41-1.29,2.374,0,2.893
					c20.411,8.208,40.822,16.416,61.232,24.624c21.6,8.687,43.199,17.372,64.799,26.059c0.691,0.278,1.684-0.123,2.373-0.292
					c1.861-0.454,3.721-0.908,5.582-1.362c7.385-1.803,14.77-3.605,22.155-5.409c25.377-6.195,50.753-12.391,76.13-18.586
					c31.809-7.766,63.616-15.531,95.425-23.297c28.985-7.076,57.972-14.153,86.957-21.229c16.91-4.129,33.819-8.257,50.729-12.385
					c1.354-0.331,2.708-0.661,4.062-0.992C478.676,836.927,477.879,834.035,476,834.494z"/>
			</g>
		</g>
		<g>
			<polygon fill="#B4ABD4" points="133.928,1010.05 7.753,953.205 7.753,868.81 133.928,919.55 			"/>
			<g>
				<path fill="#422564" d="M134.685,1008.755c-19.816-8.928-39.633-17.856-59.449-26.784c-22.06-9.938-44.12-19.877-66.18-29.816
					c-0.182-0.081-0.364-0.163-0.546-0.245c0.248,0.432,0.496,0.863,0.743,1.295c0-24.857,0-49.715,0-74.573
					c0-3.273,0-6.548,0-9.821c-0.633,0.482-1.266,0.964-1.899,1.446c20.411,8.208,40.822,16.416,61.232,24.624
					c21.6,8.687,43.199,17.372,64.799,26.059c0.048,0.02,0.096,0.038,0.144,0.058c-0.367-0.482-0.734-0.964-1.101-1.446
					c0,24.944,0,49.889,0,74.833c0,5.223,0,10.444,0,15.667c0,1.935,3,1.935,3,0c0-24.944,0-49.889,0-74.833
					c0-5.223,0-10.444,0-15.667c0-0.726-0.471-1.193-1.101-1.446c-20.411-8.208-40.822-16.416-61.232-24.624
					c-21.6-8.687-43.199-17.372-64.799-26.059c-0.048-0.02-0.096-0.038-0.144-0.058c-0.923-0.371-1.899,0.556-1.899,1.446
					c0,24.857,0,49.715,0,74.573c0,3.273,0,6.548,0,9.821c0,0.485,0.276,1.085,0.743,1.295
					c19.816,8.928,39.633,17.856,59.449,26.784c22.06,9.938,44.12,19.877,66.18,29.816c0.182,0.081,0.364,0.163,0.546,0.245
					C134.919,1012.133,136.446,1009.548,134.685,1008.755z"/>
			</g>
		</g>
	</g>
	<g>
		<polygon fill="#2D2B7D" points="476.398,922.93 133.928,1010.05 133.928,919.55 476.398,835.94 		"/>
		<g>
			<path fill="#422564" d="M476,921.484c-10.64,2.706-21.279,5.413-31.92,8.12c-25.802,6.563-51.604,13.127-77.406,19.69
				c-31.789,8.087-63.578,16.174-95.367,24.261c-28.601,7.275-57.201,14.551-85.802,21.827c-16.237,4.13-32.473,8.261-48.71,12.391
				c-1.089,0.277-2.177,0.554-3.266,0.831c0.633,0.482,1.266,0.964,1.899,1.446c0-24.944,0-49.889,0-74.833
				c0-5.223,0-10.444,0-15.667c-0.367,0.482-0.734,0.964-1.101,1.446c10.696-2.611,21.391-5.223,32.087-7.834
				c25.918-6.327,51.836-12.655,77.754-18.982c31.887-7.785,63.773-15.569,95.66-23.354c28.603-6.982,57.204-13.966,85.806-20.948
				c16.062-3.922,32.126-7.843,48.188-11.765c0.992-0.242,1.983-0.484,2.975-0.727c-0.633-0.482-1.266-0.964-1.898-1.446
				c0,24.985,0,49.971,0,74.956c0,4.012,0,8.022,0,12.034c0,1.935,3,1.935,3,0c0-24.985,0-49.971,0-74.956c0-4.012,0-8.022,0-12.034
				c0-0.997-0.955-1.677-1.898-1.446c-10.696,2.611-21.392,5.223-32.088,7.834c-25.918,6.327-51.836,12.655-77.754,18.982
				c-31.887,7.785-63.773,15.569-95.66,23.354c-28.603,6.982-57.204,13.966-85.806,20.948c-16.062,3.922-32.125,7.844-48.188,11.765
				c-0.992,0.242-1.983,0.484-2.975,0.727c-0.646,0.157-1.101,0.794-1.101,1.446c0,24.944,0,49.889,0,74.833
				c0,5.223,0,10.444,0,15.667c0,0.989,0.956,1.687,1.899,1.446c10.64-2.706,21.279-5.413,31.919-8.12
				c25.802-6.563,51.604-13.127,77.407-19.69c31.789-8.087,63.578-16.174,95.367-24.261c28.601-7.275,57.201-14.551,85.802-21.826
				c16.236-4.131,32.474-8.262,48.71-12.392c1.089-0.277,2.178-0.554,3.266-0.831C478.671,923.9,477.876,921.006,476,921.484z"/>
		</g>
	</g>
</g>
<g>
	<polygon fill="#5A469C" points="324.153,729.921 132.477,779.107 11.156,730.307 189.448,693.655 	"/>
	<g>
		<path fill="#422564" d="M323.755,728.475c-16.853,4.324-33.705,8.648-50.557,12.973c-31.047,7.967-62.093,15.934-93.139,23.9
			c-11.7,3.002-23.4,6.005-35.101,9.007c-3.294,0.846-6.588,1.69-9.882,2.536c-0.808,0.207-1.616,0.414-2.423,0.622
			c-1.038,0.266-0.008,0.055,0.107,0.102c-21.801-8.77-43.603-17.539-65.403-26.308c-18.601-7.482-37.202-14.965-55.803-22.446
			c0,0.964,0,1.929,0,2.893c18.025-3.705,36.05-7.411,54.075-11.116c30.836-6.339,61.672-12.679,92.508-19.018
			c9.329-1.918,18.657-3.835,27.986-5.753c0.96-0.197,1.92-0.395,2.88-0.593c0.9-0.185,0.998,0.084,0.081-0.163
			c2.033,0.548,4.066,1.095,6.099,1.643c27.451,7.391,54.902,14.781,82.354,22.172c15.405,4.147,30.811,8.295,46.216,12.442
			c1.87,0.504,2.663-2.391,0.797-2.893c-20.925-5.634-41.85-11.268-62.774-16.901c-23.708-6.383-47.417-12.766-71.125-19.148
			c-1.111-0.299-1.942-0.147-3.054,0.081c-2.877,0.592-5.755,1.184-8.632,1.774c-11.566,2.378-23.133,4.756-34.7,7.134
			c-31.128,6.399-62.257,12.799-93.386,19.198c-13.375,2.749-26.749,5.498-40.124,8.248c-1.609,0.331-1.238,2.395,0,2.893
			c20.76,8.351,41.521,16.701,62.281,25.052c13.958,5.614,27.916,11.229,41.874,16.844c4.375,1.76,8.751,3.52,13.127,5.279
			c1.214,0.489,3.477,1.974,4.877,1.614c17.563-4.507,35.127-9.014,52.691-13.521c31.026-7.962,62.052-15.923,93.078-23.885
			c15.289-3.923,30.578-7.846,45.867-11.77C326.425,730.887,325.63,727.994,323.755,728.475z"/>
	</g>
</g>
<g>
	<polygon fill="#B4ABD4" points="132.477,866.193 11.156,816.945 11.156,730.205 132.477,775.347 	"/>
	<g>
		<path fill="#422564" d="M132.875,864.747c-20.76-8.428-41.521-16.854-62.281-25.282c-19.68-7.988-39.36-15.978-59.04-23.966
			c0.367,0.482,0.734,0.964,1.101,1.446c0-24.914,0-49.827,0-74.741c0-3.999,0-7.999,0-11.999c-0.633,0.482-1.266,0.964-1.899,1.446
			c21.078,7.843,42.155,15.686,63.232,23.528c19.363,7.205,38.726,14.41,58.088,21.614c-0.367-0.482-0.734-0.964-1.101-1.446
			c0,24.944,0,49.889,0,74.832c0,5.338,0,10.676,0,16.014c0,1.935,3,1.935,3,0c0-24.944,0-49.889,0-74.832
			c0-5.338,0-10.676,0-16.014c0-0.712-0.468-1.211-1.101-1.446c-21.078-7.843-42.155-15.686-63.232-23.528
			c-19.363-7.205-38.726-14.41-58.088-21.614c-0.928-0.346-1.899,0.536-1.899,1.446c0,24.914,0,49.827,0,74.741
			c0,3.999,0,7.999,0,11.999c0,0.727,0.472,1.191,1.101,1.446c20.76,8.428,41.521,16.854,62.281,25.282
			c19.68,7.988,39.36,15.978,59.04,23.966C133.871,868.368,134.644,865.464,132.875,864.747z"/>
	</g>
</g>
<g>
	<polygon fill="#2D2B7D" points="324.153,818.902 132.674,865.65 132.279,774 324.153,729.921 	"/>
	<g>
		<path fill="#422564" d="M323.755,817.456c-16.933,4.134-33.865,8.268-50.797,12.401c-31.108,7.595-62.216,15.189-93.324,22.784
			c-15.786,3.854-31.572,7.708-47.359,11.562c0.633,0.482,1.266,0.964,1.899,1.446c-0.107-24.973-0.215-49.944-0.323-74.917
			c-0.024-5.577-0.048-11.155-0.072-16.732c-0.367,0.482-0.734,0.964-1.101,1.446c17.016-3.909,34.032-7.818,51.049-11.728
			c31.219-7.172,62.438-14.344,93.657-21.516c15.723-3.612,31.445-7.224,47.168-10.836c-0.633-0.482-1.266-0.964-1.898-1.446
			c0,24.994,0,49.989,0,74.983c0,4.666,0,9.331,0,13.997c0,1.935,3,1.935,3,0c0-24.994,0-49.989,0-74.983c0-4.666,0-9.331,0-13.997
			c0-1.007-0.954-1.663-1.898-1.446c-17.017,3.909-34.033,7.818-51.049,11.728c-31.22,7.172-62.438,14.344-93.658,21.516
			c-15.723,3.612-31.446,7.224-47.168,10.836c-0.644,0.147-1.104,0.801-1.101,1.446c0.107,24.973,0.215,49.944,0.323,74.917
			c0.024,5.577,0.048,11.155,0.072,16.732c0.004,0.996,0.952,1.678,1.899,1.446c16.932-4.134,33.864-8.268,50.796-12.401
			c31.108-7.595,62.217-15.189,93.324-22.784c15.786-3.854,31.572-7.708,47.358-11.562
			C326.431,819.889,325.634,816.997,323.755,817.456z"/>
	</g>
</g>
<g>
	<g>
		<polygon fill="#2D2B7D" points="511.05,636.854 131.41,728.31 132.477,638.113 512,546.64 		"/>
		<g>
			<path fill="#422564" d="M510.651,635.408c-9.798,2.36-19.596,4.721-29.394,7.081c-24.362,5.868-48.725,11.737-73.087,17.606
				c-31.38,7.56-62.761,15.119-94.141,22.679c-30.853,7.433-61.704,14.865-92.557,22.297c-22.777,5.487-45.555,10.975-68.333,16.462
				c-7.376,1.777-14.753,3.554-22.13,5.331c0.633,0.482,1.266,0.964,1.899,1.446c0.295-24.956,0.59-49.912,0.885-74.868
				c0.061-5.109,0.121-10.22,0.181-15.329c-0.367,0.482-0.734,0.964-1.101,1.446c9.794-2.36,19.589-4.721,29.384-7.082
				c24.355-5.87,48.71-11.74,73.064-17.61c31.371-7.561,62.742-15.122,94.113-22.683c30.842-7.434,61.685-14.867,92.527-22.301
				c22.771-5.488,45.541-10.977,68.312-16.465c7.375-1.777,14.749-3.555,22.123-5.332c-0.633-0.482-1.266-0.964-1.898-1.446
				c-0.263,24.96-0.525,49.921-0.789,74.882c-0.054,5.11-0.107,10.221-0.161,15.332c-0.021,1.936,2.979,1.934,3,0
				c0.263-24.96,0.525-49.921,0.789-74.882c0.054-5.11,0.107-10.221,0.161-15.332c0.011-1-0.963-1.672-1.898-1.446
				c-9.795,2.36-19.59,4.721-29.385,7.082c-24.354,5.87-48.709,11.74-73.064,17.61c-31.37,7.561-62.741,15.122-94.112,22.683
				c-30.842,7.434-61.685,14.867-92.527,22.301c-22.771,5.488-45.542,10.977-68.312,16.465c-7.374,1.777-14.749,3.555-22.123,5.332
				c-0.651,0.157-1.093,0.795-1.101,1.446c-0.295,24.956-0.59,49.912-0.885,74.868c-0.061,5.109-0.121,10.22-0.181,15.329
				c-0.012,1.001,0.964,1.672,1.899,1.446c9.797-2.36,19.595-4.721,29.393-7.081c24.362-5.868,48.725-11.737,73.086-17.606
				c31.38-7.56,62.761-15.119,94.141-22.679c30.853-7.433,61.704-14.865,92.557-22.297c22.777-5.487,45.555-10.975,68.332-16.462
				c7.377-1.776,14.754-3.554,22.13-5.331C513.329,637.847,512.531,634.955,510.651,635.408z"/>
		</g>
	</g>
	<g>
		<polygon fill="#5A469C" points="512,546.64 132.477,638.113 11.156,592.683 349.336,517.568 		"/>
		<g>
			<path fill="#422564" d="M511.602,545.194c-9.826,2.368-19.652,4.736-29.479,7.104c-24.423,5.887-48.846,11.773-73.27,17.66
				c-31.437,7.577-62.874,15.154-94.311,22.731c-30.869,7.439-61.737,14.879-92.605,22.319
				c-22.717,5.476-45.434,10.951-68.151,16.426c-5.932,1.43-11.864,2.859-17.796,4.289c-1.195,0.288-2.389,0.576-3.584,0.864
				c-0.796,0.191,0.463,0.077,0.382,0.047c-0.705-0.264-1.409-0.527-2.113-0.792c-25.201-9.437-50.403-18.874-75.604-28.31
				c-14.505-5.432-29.011-10.864-43.517-16.295c0,0.964,0,1.928,0,2.893c10.942-2.43,21.884-4.861,32.826-7.291
				c26.376-5.858,52.751-11.717,79.127-17.576c32.133-7.137,64.266-14.274,96.399-21.412c28.214-6.267,56.429-12.534,84.643-18.801
				c14.619-3.247,29.238-6.494,43.857-9.741c0.39-0.087,0.779-0.173,1.169-0.26c0.605-0.134-1.229-0.141-0.31,0.024
				c2.302,0.412,4.603,0.823,6.903,1.234c11.355,2.029,22.71,4.059,34.064,6.088c30.944,5.53,61.889,11.061,92.833,16.591
				c9.512,1.7,19.022,3.4,28.533,5.1c1.891,0.338,2.699-2.553,0.797-2.893c-19.401-3.468-38.804-6.936-58.205-10.403
				c-29.595-5.29-59.189-10.579-88.784-15.868c-3.962-0.708-7.924-1.416-11.886-2.125c-1.29-0.23-3.259-0.972-4.595-0.675
				c-3.106,0.69-6.214,1.38-9.32,2.07c-20.099,4.464-40.198,8.929-60.297,13.393c-30.549,6.786-61.098,13.571-91.647,20.356
				c-31.323,6.958-62.646,13.915-93.97,20.872c-22.421,4.98-44.843,9.96-67.264,14.94c-5.225,1.161-10.449,2.321-15.673,3.481
				c-1.57,0.349-1.283,2.412,0,2.893c21.158,7.923,42.316,15.846,63.474,23.769c13.985,5.237,27.97,10.474,41.956,15.71
				c4.209,1.577,8.419,3.153,12.628,4.729c1.123,0.42,2.884,1.506,4.144,1.202c10.736-2.588,21.472-5.175,32.208-7.763
				c24.954-6.014,49.908-12.029,74.861-18.043c31.589-7.613,63.178-15.227,94.767-22.84c30.641-7.385,61.282-14.771,91.923-22.155
				c22.11-5.329,44.221-10.658,66.33-15.987c6.451-1.555,12.901-3.109,19.352-4.664
				C514.279,547.633,513.481,544.741,511.602,545.194z"/>
		</g>
	</g>
	<g>
		<polygon fill="#B4ABD4" points="132.477,728.637 11.156,679.442 11.156,592.683 132.477,638.113 		"/>
		<g>
			<path fill="#422564" d="M132.875,727.191c-20.76-8.418-41.521-16.837-62.281-25.255c-19.68-7.98-39.36-15.96-59.04-23.94
				c0.367,0.482,0.734,0.964,1.101,1.446c0-24.919,0-49.838,0-74.757c0-4,0-8.001,0-12.002c-0.633,0.482-1.266,0.964-1.899,1.446
				c21.078,7.893,42.155,15.786,63.232,23.678c19.363,7.25,38.726,14.501,58.088,21.751c-0.367-0.482-0.734-0.964-1.101-1.446
				c0,24.951,0,49.902,0,74.854c0,5.224,0,10.447,0,15.671c0,1.935,3,1.935,3,0c0-24.951,0-49.902,0-74.854
				c0-5.224,0-10.447,0-15.671c0-0.713-0.468-1.209-1.101-1.446c-21.078-7.893-42.155-15.786-63.232-23.678
				c-19.363-7.25-38.726-14.501-58.088-21.751c-0.928-0.348-1.899,0.538-1.899,1.446c0,24.919,0,49.838,0,74.757
				c0,4.001,0,8.001,0,12.002c0,0.727,0.472,1.191,1.101,1.446c20.76,8.418,41.521,16.837,62.281,25.255
				c19.68,7.98,39.36,15.96,59.04,23.94C133.872,730.811,134.644,727.908,132.875,727.191z"/>
		</g>
	</g>
</g>
</svg>
