<?xml version="1.0" encoding="utf-8"?>
<!-- Generator: Adobe Illustrator 16.0.0, SVG Export Plug-In . SVG Version: 6.00 Build 0)  -->
<!DOCTYPE svg PUBLIC "-//W3C//DTD SVG 1.1//EN" "http://www.w3.org/Graphics/SVG/1.1/DTD/svg11.dtd">
<svg version="1.1" id="Layer_1" xmlns="http://www.w3.org/2000/svg" xmlns:xlink="http://www.w3.org/1999/xlink" x="0px" y="0px"
	 width="1774.992px" height="556.67px" viewBox="0 0 1774.992 556.67" enable-background="new 0 0 1774.992 556.67"
	 xml:space="preserve">
<g>
	<g>
		<rect x="231.125" y="450.643" fill="none" width="1541.875" height="71.996"/>
		<path d="M246.933,460.777v18.381h21.86v7.68h-21.86v23.848h29.99v8.129h-39.023v-66.168h39.52v8.131H246.933z"/>
		<path d="M283.607,515.924l3.026-8.129c4.788,3.131,8.642,4.697,11.562,4.697c5.299,0,7.949-2.229,7.949-6.686
			c0-3.191-2.56-5.932-7.678-8.221c-3.945-1.807-6.602-3.176-7.972-4.109c-1.371-0.934-2.56-1.994-3.568-3.184
			c-1.009-1.189-1.761-2.455-2.258-3.795c-0.497-1.338-0.745-2.777-0.745-4.312c0-3.975,1.445-7.076,4.336-9.305
			s6.669-3.342,11.337-3.342c3.522,0,7.964,1.113,13.324,3.342l-2.439,7.949c-3.403-2.709-6.82-4.064-10.253-4.064
			c-2.048,0-3.771,0.482-5.171,1.445c-1.4,0.963-2.1,2.184-2.1,3.658c0,3.102,1.762,5.451,5.284,7.045l6.143,2.801
			c3.764,1.717,6.504,3.674,8.221,5.871c1.716,2.199,2.574,4.955,2.574,8.266c0,4.336-1.521,7.732-4.562,10.186
			c-3.042,2.455-7.257,3.682-12.646,3.682C292.881,519.719,288.094,518.453,283.607,515.924z"/>
		<path d="M327.283,477.217h-5.601v-6.775h5.601v-10.117l8.581-3.297v13.414h13.279v6.775h-13.279v24.029
			c0,4.064,0.685,6.955,2.055,8.672c1.37,1.715,3.575,2.574,6.617,2.574c2.198,0,4.472-0.557,6.82-1.672l1.265,7.543
			c-3.553,0.902-7.452,1.355-11.698,1.355c-3.824,0-7.053-1.424-9.688-4.27c-2.635-2.844-3.952-6.436-3.952-10.771V477.217z"/>
		<path d="M388.212,513.26c-3.433,4.307-8.688,6.459-15.763,6.459c-3.794,0-7.084-1.379-9.869-4.133
			c-2.785-2.756-4.178-6.18-4.178-10.275c0-4.908,2.146-9.057,6.436-12.443c4.291-3.387,9.763-5.082,16.418-5.082
			c1.807,0,3.854,0.393,6.143,1.176c0-7.83-3.493-11.744-10.479-11.744c-5.36,0-9.485,1.445-12.375,4.336l-3.613-7.182
			c1.626-1.324,3.876-2.461,6.752-3.41c2.875-0.947,5.623-1.422,8.243-1.422c7.016,0,12.111,1.596,15.289,4.787
			c3.177,3.191,4.765,8.266,4.765,15.221v17.344c0,4.246,1.265,7.076,3.794,8.492v4.291c-3.493,0-6.105-0.498-7.836-1.492
			C390.206,517.189,388.964,515.549,388.212,513.26z M387.399,495.057c-2.71-0.602-4.607-0.902-5.691-0.902
			c-4.336,0-7.875,1.115-10.614,3.342c-2.74,2.229-4.11,4.863-4.11,7.904c0,5.029,2.965,7.543,8.898,7.543
			c4.336,0,8.175-2.062,11.517-6.188V495.057z"/>
		<path d="M440.153,518.77v-3.568c-2.981,2.98-7.317,4.473-13.008,4.473c-6.052,0-10.96-2.168-14.724-6.504
			c-3.764-4.336-5.646-10.117-5.646-17.344c0-7.258,2.168-13.453,6.504-18.586c4.336-5.135,9.5-7.701,15.492-7.701
			c4.998,0,8.792,1.174,11.382,3.523v-22.449h8.582v68.156H440.153z M440.153,481.643c-2.168-3.252-5.134-4.877-8.898-4.877
			c-4.606,0-8.333,1.717-11.178,5.148c-2.846,3.434-4.268,7.799-4.268,13.098c0,11.654,5.299,17.48,15.898,17.48
			c1.354,0,2.98-0.43,4.878-1.287c1.896-0.859,3.086-1.77,3.568-2.732V481.643z"/>
		<path d="M457.857,494.516c0-7.467,2.01-13.496,6.03-18.09c4.02-4.59,9.312-6.887,15.876-6.887c6.925,0,12.3,2.205,16.125,6.617
			c3.823,4.41,5.736,10.531,5.736,18.359c0,7.799-1.958,13.949-5.872,18.451c-3.915,4.5-9.244,6.752-15.989,6.752
			c-6.896,0-12.271-2.273-16.125-6.82C459.784,508.352,457.857,502.225,457.857,494.516z M466.891,494.516
			c0,12.135,4.291,18.201,12.873,18.201c4.004,0,7.143-1.625,9.417-4.877c2.273-3.252,3.41-7.693,3.41-13.324
			c0-11.984-4.276-17.977-12.827-17.977c-3.915,0-7.039,1.598-9.372,4.787C468.058,484.52,466.891,488.914,466.891,494.516z"/>
		<path d="M539.202,518.814v-66.168h9.033v58.039h29.9v8.129H539.202z"/>
		<path d="M589.517,518.814v-41.146h-6.64v-7.227h15.221v48.373H589.517z M594.214,452.15c1.475,0,2.732,0.52,3.771,1.559
			c1.039,1.037,1.558,2.279,1.558,3.725c0,1.477-0.519,2.732-1.558,3.771c-1.039,1.039-2.296,1.559-3.771,1.559
			c-1.445,0-2.688-0.52-3.727-1.559c-1.039-1.039-1.558-2.295-1.558-3.771c0-1.475,0.512-2.725,1.536-3.748
			C591.488,452.662,592.738,452.15,594.214,452.15z"/>
		<path d="M619.055,515.338l-3.026,4.381h-4.291v-69.105h8.581v23.396c0.813-1.113,2.341-2.137,4.584-3.07
			c2.243-0.934,4.449-1.4,6.617-1.4c6.624,0,11.992,2.289,16.102,6.865c4.11,4.576,6.165,10.357,6.165,17.344
			c0,8.07-2.063,14.416-6.188,19.037c-4.125,4.623-9.71,6.934-16.756,6.934c-2.289,0-4.539-0.43-6.752-1.287
			C621.878,517.572,620.199,516.541,619.055,515.338z M620.319,480.559v27.914c0,0.48,1.069,1.271,3.207,2.371
			c2.138,1.1,3.764,1.648,4.878,1.648c5.841,0,10.027-1.4,12.556-4.201s3.794-7.498,3.794-14.092c0-5.48-1.476-9.756-4.426-12.826
			c-2.951-3.072-6.926-4.607-11.924-4.607c-1.054,0-2.522,0.451-4.404,1.355C622.119,479.023,620.891,479.836,620.319,480.559z"/>
		<path d="M689.559,478.707c-1.867-1.293-3.749-1.941-5.646-1.941c-3.042,0-5.699,1.4-7.972,4.199
			c-2.274,2.801-3.41,6.174-3.41,10.117v27.732h-8.582v-48.373h8.582v7.725c3.131-5.752,7.783-8.627,13.956-8.627
			c1.536,0,3.749,0.271,6.64,0.812L689.559,478.707z"/>
		<path d="M739.964,495.465h-34.868c0,5.66,1.551,10.012,4.652,13.053c2.74,2.65,6.263,3.975,10.569,3.975
			c4.908,0,9.003-1.43,12.285-4.291l3.613,6.188c-1.325,1.326-3.358,2.469-6.097,3.432c-3.433,1.266-7.257,1.898-11.473,1.898
			c-6.083,0-11.246-2.062-15.492-6.188c-4.728-4.547-7.091-10.66-7.091-18.338c0-7.979,2.424-14.377,7.272-19.195
			c4.336-4.307,9.469-6.459,15.402-6.459c6.895,0,12.3,1.941,16.214,5.826c3.794,3.734,5.691,8.688,5.691,14.859
			C740.642,492.121,740.416,493.869,739.964,495.465z M719.143,476.766c-3.824,0-7.031,1.234-9.62,3.703
			c-2.47,2.35-3.87,5.27-4.201,8.762h26.784c0-3.461-1.084-6.352-3.252-8.672C726.474,478.029,723.237,476.766,719.143,476.766z"/>
		<path d="M810.694,518.814l-4.562-13.955h-24.615l-4.878,13.955h-10.117l26.874-67.07h2.394l24.932,67.07H810.694z
			 M794.163,469.088l-10.253,29.131h19.647L794.163,469.088z"/>
		<path d="M823.837,515.924l3.026-8.129c4.788,3.131,8.642,4.697,11.562,4.697c5.299,0,7.949-2.229,7.949-6.686
			c0-3.191-2.56-5.932-7.678-8.221c-3.945-1.807-6.602-3.176-7.972-4.109c-1.371-0.934-2.56-1.994-3.568-3.184
			c-1.009-1.189-1.761-2.455-2.258-3.795c-0.497-1.338-0.745-2.777-0.745-4.312c0-3.975,1.445-7.076,4.336-9.305
			s6.669-3.342,11.337-3.342c3.522,0,7.964,1.113,13.324,3.342l-2.439,7.949c-3.403-2.709-6.82-4.064-10.253-4.064
			c-2.048,0-3.771,0.482-5.171,1.445c-1.4,0.963-2.1,2.184-2.1,3.658c0,3.102,1.762,5.451,5.284,7.045l6.143,2.801
			c3.764,1.717,6.504,3.674,8.221,5.871c1.716,2.199,2.574,4.955,2.574,8.266c0,4.336-1.521,7.732-4.562,10.186
			c-3.042,2.455-7.257,3.682-12.646,3.682C833.111,519.719,828.323,518.453,823.837,515.924z"/>
		<path d="M861.279,494.516c0-7.467,2.01-13.496,6.03-18.09c4.02-4.59,9.312-6.887,15.876-6.887c6.925,0,12.3,2.205,16.125,6.617
			c3.823,4.41,5.735,10.531,5.735,18.359c0,7.799-1.957,13.949-5.871,18.451c-3.915,4.5-9.244,6.752-15.989,6.752
			c-6.896,0-12.271-2.273-16.125-6.82C863.206,508.352,861.279,502.225,861.279,494.516z M870.312,494.516
			c0,12.135,4.291,18.201,12.873,18.201c4.004,0,7.143-1.625,9.417-4.877c2.273-3.252,3.41-7.693,3.41-13.324
			c0-11.984-4.276-17.977-12.827-17.977c-3.915,0-7.039,1.598-9.372,4.787C871.479,484.52,870.312,488.914,870.312,494.516z"/>
		<path d="M950.573,474.371l-4.246,6.053c-0.873-0.873-2.416-1.701-4.629-2.484c-2.214-0.783-4.39-1.174-6.527-1.174
			c-4.667,0-8.371,1.633-11.11,4.9c-2.74,3.268-4.11,7.746-4.11,13.438c0,5.66,1.4,9.975,4.201,12.939
			c2.8,2.967,6.684,4.449,11.652,4.449c3.854,0,7.738-1.49,11.652-4.473l3.388,7.227c-4.606,2.982-10.313,4.473-17.118,4.473
			c-6.594,0-12.044-2.213-16.35-6.641c-4.307-4.426-6.459-10.418-6.459-17.975c0-7.709,2.236-13.896,6.707-18.564
			c4.472-4.666,10.592-7,18.36-7c2.499,0,5.209,0.527,8.13,1.58C947.034,472.174,949.188,473.258,950.573,474.371z"/>
		<path d="M964.032,518.814v-41.146h-6.64v-7.227h15.221v48.373H964.032z M968.729,452.15c1.475,0,2.732,0.52,3.771,1.559
			c1.038,1.037,1.558,2.279,1.558,3.725c0,1.477-0.52,2.732-1.558,3.771c-1.039,1.039-2.297,1.559-3.771,1.559
			c-1.445,0-2.688-0.52-3.727-1.559s-1.558-2.295-1.558-3.771c0-1.475,0.511-2.725,1.535-3.748
			C966.004,452.662,967.254,452.15,968.729,452.15z"/>
		<path d="M1013.579,513.26c-3.433,4.307-8.688,6.459-15.763,6.459c-3.794,0-7.084-1.379-9.869-4.133
			c-2.785-2.756-4.178-6.18-4.178-10.275c0-4.908,2.146-9.057,6.437-12.443c4.29-3.387,9.763-5.082,16.417-5.082
			c1.807,0,3.854,0.393,6.143,1.176c0-7.83-3.493-11.744-10.479-11.744c-5.359,0-9.484,1.445-12.375,4.336l-3.613-7.182
			c1.626-1.324,3.877-2.461,6.752-3.41c2.875-0.947,5.623-1.422,8.243-1.422c7.016,0,12.111,1.596,15.289,4.787
			c3.176,3.191,4.765,8.266,4.765,15.221v17.344c0,4.246,1.265,7.076,3.794,8.492v4.291c-3.493,0-6.105-0.498-7.836-1.492
			C1015.573,517.189,1014.331,515.549,1013.579,513.26z M1012.766,495.057c-2.709-0.602-4.606-0.902-5.69-0.902
			c-4.336,0-7.874,1.115-10.614,3.342c-2.74,2.229-4.109,4.863-4.109,7.904c0,5.029,2.965,7.543,8.897,7.543
			c4.336,0,8.175-2.062,11.517-6.188V495.057z"/>
		<path d="M1065.521,518.77v-3.568c-2.981,2.98-7.317,4.473-13.008,4.473c-6.053,0-10.961-2.168-14.725-6.504
			c-3.765-4.336-5.646-10.117-5.646-17.344c0-7.258,2.168-13.453,6.504-18.586c4.336-5.135,9.499-7.701,15.491-7.701
			c4.998,0,8.792,1.174,11.383,3.523v-22.449h8.581v68.156H1065.521z M1065.521,481.643c-2.168-3.252-5.135-4.877-8.898-4.877
			c-4.606,0-8.333,1.717-11.179,5.148c-2.845,3.434-4.268,7.799-4.268,13.098c0,11.654,5.299,17.48,15.898,17.48
			c1.354,0,2.98-0.43,4.878-1.287c1.896-0.859,3.086-1.77,3.568-2.732V481.643z"/>
		<path d="M1083.225,494.516c0-7.467,2.01-13.496,6.03-18.09c4.02-4.59,9.311-6.887,15.876-6.887c6.925,0,12.3,2.205,16.124,6.617
			c3.823,4.41,5.735,10.531,5.735,18.359c0,7.799-1.957,13.949-5.871,18.451c-3.915,4.5-9.244,6.752-15.988,6.752
			c-6.896,0-12.271-2.273-16.125-6.82S1083.225,502.225,1083.225,494.516z M1092.258,494.516c0,12.135,4.291,18.201,12.873,18.201
			c4.004,0,7.143-1.625,9.417-4.877c2.272-3.252,3.409-7.693,3.409-13.324c0-11.984-4.275-17.977-12.826-17.977
			c-3.915,0-7.039,1.598-9.372,4.787C1093.425,484.52,1092.258,488.914,1092.258,494.516z"/>
		<path d="M1194.56,518.77v-3.568c-2.981,2.98-7.317,4.473-13.008,4.473c-6.053,0-10.961-2.168-14.725-6.504
			c-3.765-4.336-5.646-10.117-5.646-17.344c0-7.258,2.168-13.453,6.504-18.586c4.336-5.135,9.499-7.701,15.491-7.701
			c4.998,0,8.792,1.174,11.383,3.523v-22.449h8.581v68.156H1194.56z M1194.56,481.643c-2.168-3.252-5.135-4.877-8.898-4.877
			c-4.606,0-8.333,1.717-11.179,5.148c-2.845,3.434-4.268,7.799-4.268,13.098c0,11.654,5.299,17.48,15.898,17.48
			c1.354,0,2.98-0.43,4.878-1.287c1.896-0.859,3.086-1.77,3.568-2.732V481.643z"/>
		<path d="M1256.165,495.465h-34.868c0,5.66,1.551,10.012,4.652,13.053c2.739,2.65,6.263,3.975,10.568,3.975
			c4.908,0,9.003-1.43,12.285-4.291l3.613,6.188c-1.325,1.326-3.357,2.469-6.097,3.432c-3.433,1.266-7.257,1.898-11.473,1.898
			c-6.082,0-11.246-2.062-15.491-6.188c-4.729-4.547-7.092-10.66-7.092-18.338c0-7.979,2.424-14.377,7.271-19.195
			c4.336-4.307,9.47-6.459,15.402-6.459c6.895,0,12.3,1.941,16.215,5.826c3.793,3.734,5.69,8.688,5.69,14.859
			C1256.843,492.121,1256.617,493.869,1256.165,495.465z M1235.344,476.766c-3.824,0-7.031,1.234-9.62,3.703
			c-2.47,2.35-3.87,5.27-4.2,8.762h26.783c0-3.461-1.084-6.352-3.252-8.672C1242.676,478.029,1239.438,476.766,1235.344,476.766z"/>
		<path d="M1303.454,493.342v25.473h-9.033v-66.168c6.834-0.301,10.959-0.451,12.375-0.451c19.21,0,28.816,6.43,28.816,19.285
			c0,14.875-8.492,22.312-25.475,22.312C1309.114,493.793,1306.886,493.643,1303.454,493.342z M1303.454,460.777v24.434
			c3.823,0.303,5.841,0.451,6.052,0.451c11.201,0,16.802-4.41,16.802-13.232c0-8.07-5.978-12.105-17.931-12.105
			C1307.172,460.324,1305.531,460.477,1303.454,460.777z"/>
		<path d="M1353.452,470.441v30.85c0,7.467,3.236,11.201,9.71,11.201c2.83,0,5.42-0.814,7.77-2.439
			c2.348-1.627,3.898-3.508,4.651-5.646v-33.965h8.582v48.373h-8.582v-6.684c-0.964,1.896-2.898,3.635-5.804,5.217
			c-2.906,1.58-5.744,2.371-8.514,2.371c-5.3,0-9.357-1.521-12.172-4.562c-2.816-3.041-4.224-7.361-4.224-12.963v-31.752H1353.452z"
			/>
		<path d="M1436.603,495.465h-34.868c0,5.66,1.551,10.012,4.652,13.053c2.739,2.65,6.263,3.975,10.568,3.975
			c4.908,0,9.003-1.43,12.285-4.291l3.613,6.188c-1.325,1.326-3.357,2.469-6.097,3.432c-3.433,1.266-7.257,1.898-11.473,1.898
			c-6.082,0-11.246-2.062-15.491-6.188c-4.729-4.547-7.092-10.66-7.092-18.338c0-7.979,2.424-14.377,7.271-19.195
			c4.336-4.307,9.47-6.459,15.402-6.459c6.895,0,12.3,1.941,16.215,5.826c3.793,3.734,5.69,8.688,5.69,14.859
			C1437.28,492.121,1437.055,493.869,1436.603,495.465z M1415.781,476.766c-3.824,0-7.031,1.234-9.62,3.703
			c-2.47,2.35-3.87,5.27-4.2,8.762h26.783c0-3.461-1.084-6.352-3.252-8.672C1423.113,478.029,1419.876,476.766,1415.781,476.766z"/>
		<path d="M1472.6,478.707c-1.867-1.293-3.749-1.941-5.646-1.941c-3.042,0-5.698,1.4-7.972,4.199
			c-2.274,2.801-3.41,6.174-3.41,10.117v27.732h-8.581v-48.373h8.581v7.725c3.131-5.752,7.783-8.627,13.956-8.627
			c1.536,0,3.749,0.271,6.64,0.812L1472.6,478.707z"/>
		<path d="M1485.337,477.217h-5.601v-6.775h5.601v-10.117l8.581-3.297v13.414h13.279v6.775h-13.279v24.029
			c0,4.064,0.685,6.955,2.056,8.672c1.369,1.715,3.575,2.574,6.616,2.574c2.198,0,4.472-0.557,6.82-1.672l1.265,7.543
			c-3.554,0.902-7.452,1.355-11.698,1.355c-3.824,0-7.054-1.424-9.688-4.27c-2.636-2.844-3.952-6.436-3.952-10.771V477.217z"/>
		<path d="M1515.778,494.516c0-7.467,2.01-13.496,6.03-18.09c4.02-4.59,9.311-6.887,15.876-6.887c6.925,0,12.3,2.205,16.124,6.617
			c3.823,4.41,5.735,10.531,5.735,18.359c0,7.799-1.957,13.949-5.871,18.451c-3.915,4.5-9.244,6.752-15.988,6.752
			c-6.896,0-12.271-2.273-16.125-6.82S1515.778,502.225,1515.778,494.516z M1524.812,494.516c0,12.135,4.291,18.201,12.873,18.201
			c4.004,0,7.143-1.625,9.417-4.877c2.272-3.252,3.409-7.693,3.409-13.324c0-11.984-4.275-17.977-12.826-17.977
			c-3.915,0-7.039,1.598-9.372,4.787C1525.979,484.52,1524.812,488.914,1524.812,494.516z"/>
		<path d="M1633.843,518.814l-17.66-28.408c-2.018,0-5.21-0.15-9.575-0.453v28.861h-9.033v-66.168c0.331,0,2.672-0.113,7.023-0.338
			c4.351-0.227,7.52-0.34,9.508-0.34c15.898,0,23.848,6.324,23.848,18.971c0,4.154-1.28,7.896-3.84,11.223
			c-2.56,3.328-5.601,5.398-9.123,6.211l19.195,30.441H1633.843z M1606.607,460.777v21.498c2.168,0.301,4.275,0.451,6.323,0.451
			c5.42,0,9.364-0.873,11.833-2.619s3.704-4.861,3.704-9.35c0-3.703-1.325-6.367-3.975-7.994c-2.65-1.625-6.836-2.439-12.556-2.439
			C1611.033,460.324,1609.257,460.477,1606.607,460.777z"/>
		<path d="M1654.438,518.814v-41.146h-6.64v-7.227h15.221v48.373H1654.438z M1659.136,452.15c1.475,0,2.732,0.52,3.771,1.559
			c1.038,1.037,1.558,2.279,1.558,3.725c0,1.477-0.52,2.732-1.558,3.771c-1.039,1.039-2.297,1.559-3.771,1.559
			c-1.445,0-2.688-0.52-3.727-1.559s-1.558-2.295-1.558-3.771c0-1.475,0.511-2.725,1.535-3.748
			C1656.41,452.662,1657.66,452.15,1659.136,452.15z"/>
		<path d="M1713.154,474.371l-4.246,6.053c-0.873-0.873-2.416-1.701-4.629-2.484c-2.214-0.783-4.39-1.174-6.527-1.174
			c-4.667,0-8.371,1.633-11.11,4.9c-2.74,3.268-4.11,7.746-4.11,13.438c0,5.66,1.4,9.975,4.201,12.939
			c2.8,2.967,6.684,4.449,11.652,4.449c3.854,0,7.738-1.49,11.652-4.473l3.388,7.227c-4.606,2.982-10.313,4.473-17.118,4.473
			c-6.594,0-12.044-2.213-16.35-6.641c-4.307-4.426-6.459-10.418-6.459-17.975c0-7.709,2.236-13.896,6.707-18.564
			c4.472-4.666,10.592-7,18.36-7c2.499,0,5.209,0.527,8.13,1.58C1709.615,472.174,1711.769,473.258,1713.154,474.371z"/>
		<path d="M1719.297,494.516c0-7.467,2.01-13.496,6.03-18.09c4.02-4.59,9.311-6.887,15.876-6.887c6.925,0,12.3,2.205,16.124,6.617
			c3.823,4.41,5.735,10.531,5.735,18.359c0,7.799-1.957,13.949-5.871,18.451c-3.915,4.5-9.244,6.752-15.988,6.752
			c-6.896,0-12.271-2.273-16.125-6.82S1719.297,502.225,1719.297,494.516z M1728.33,494.516c0,12.135,4.291,18.201,12.873,18.201
			c4.004,0,7.143-1.625,9.417-4.877c2.272-3.252,3.409-7.693,3.409-13.324c0-11.984-4.275-17.977-12.826-17.977
			c-3.915,0-7.039,1.598-9.372,4.787C1729.497,484.52,1728.33,488.914,1728.33,494.516z"/>
	</g>
	<g>
		<rect x="233.625" y="122.163" fill="none" width="1537.423" height="280.985"/>
		<path d="M246.271,225.343V125.197h13.672v100.146H246.271z"/>
		<path d="M326.867,225.343v-42.588c0-7.793-1.174-13.25-3.521-16.372c-2.348-3.121-6.278-4.683-11.792-4.683
			c-2.963,0-6.062,0.889-9.297,2.666c-3.236,1.777-5.72,3.965-7.451,6.562v54.414h-12.988V152.13h8.887l4.102,9.434
			c4.283-7.2,11.279-10.801,20.986-10.801c16.041,0,24.062,9.753,24.062,29.258v45.322H326.867z"/>
		<path d="M353.527,220.968l4.58-12.305c7.246,4.74,13.079,7.109,17.5,7.109c8.021,0,12.031-3.372,12.031-10.117
			c0-4.83-3.874-8.978-11.621-12.441c-5.971-2.734-9.992-4.808-12.065-6.221c-2.074-1.412-3.874-3.019-5.4-4.819
			c-1.527-1.8-2.666-3.714-3.418-5.742c-0.752-2.027-1.128-4.204-1.128-6.528c0-6.016,2.188-10.709,6.562-14.082
			c4.375-3.372,10.094-5.059,17.158-5.059c5.332,0,12.054,1.687,20.166,5.059l-3.691,12.031c-5.15-4.102-10.322-6.152-15.518-6.152
			c-3.1,0-5.708,0.729-7.827,2.188c-2.119,1.459-3.179,3.305-3.179,5.537c0,4.694,2.666,8.249,7.998,10.664l9.297,4.238
			c5.696,2.598,9.844,5.561,12.441,8.887c2.598,3.327,3.896,7.497,3.896,12.51c0,6.562-2.302,11.701-6.904,15.415
			c-4.604,3.715-10.983,5.571-19.141,5.571C367.563,226.71,360.317,224.796,353.527,220.968z"/>
		<path d="M419.631,162.384h-8.477V152.13h8.477v-15.312l12.988-4.99v20.303h20.098v10.254h-20.098v36.367
			c0,6.152,1.036,10.527,3.11,13.125c2.073,2.598,5.411,3.896,10.015,3.896c3.326,0,6.768-0.843,10.322-2.529l1.914,11.416
			c-5.378,1.367-11.279,2.051-17.705,2.051c-5.788,0-10.676-2.153-14.663-6.46c-3.988-4.307-5.981-9.741-5.981-16.304V162.384z"/>
		<path d="M476.779,225.343v-62.275H466.73V152.13h23.037v73.213H476.779z M483.889,124.445c2.232,0,4.136,0.786,5.708,2.358
			s2.358,3.452,2.358,5.64c0,2.233-0.786,4.136-2.358,5.708s-3.476,2.358-5.708,2.358c-2.188,0-4.067-0.786-5.64-2.358
			s-2.358-3.475-2.358-5.708c0-2.232,0.774-4.124,2.324-5.674C479.764,125.22,481.655,124.445,483.889,124.445z"/>
		<path d="M515.061,162.384h-8.477V152.13h8.477v-15.312l12.988-4.99v20.303h20.098v10.254h-20.098v36.367
			c0,6.152,1.036,10.527,3.11,13.125c2.073,2.598,5.411,3.896,10.015,3.896c3.326,0,6.768-0.843,10.322-2.529l1.914,11.416
			c-5.378,1.367-11.279,2.051-17.705,2.051c-5.788,0-10.676-2.153-14.663-6.46c-3.988-4.307-5.981-9.741-5.981-16.304V162.384z"/>
		<path d="M578.225,152.13v46.689c0,11.303,4.898,16.953,14.697,16.953c4.283,0,8.203-1.23,11.758-3.691s5.901-5.309,7.041-8.545
			V152.13h12.988v73.213h-12.988v-10.117c-1.459,2.871-4.387,5.503-8.784,7.896c-4.398,2.393-8.693,3.589-12.886,3.589
			c-8.021,0-14.162-2.301-18.423-6.904c-4.262-4.603-6.392-11.143-6.392-19.619V152.13H578.225z"/>
		<path d="M647.062,162.384h-8.477V152.13h8.477v-15.312l12.988-4.99v20.303h20.098v10.254h-20.098v36.367
			c0,6.152,1.036,10.527,3.11,13.125c2.073,2.598,5.411,3.896,10.015,3.896c3.326,0,6.768-0.843,10.322-2.529l1.914,11.416
			c-5.378,1.367-11.279,2.051-17.705,2.051c-5.788,0-10.676-2.153-14.663-6.46c-3.988-4.307-5.981-9.741-5.981-16.304V162.384z"/>
		<path d="M693.137,188.566c0-11.302,3.042-20.428,9.126-27.378c6.084-6.949,14.093-10.425,24.028-10.425
			c10.481,0,18.616,3.339,24.404,10.015c5.787,6.677,8.682,15.939,8.682,27.788c0,11.804-2.963,21.112-8.887,27.925
			c-5.925,6.813-13.991,10.22-24.199,10.22c-10.437,0-18.571-3.44-24.404-10.322C696.053,209.507,693.137,200.233,693.137,188.566z
			 M706.809,188.566c0,18.366,6.494,27.549,19.482,27.549c6.061,0,10.812-2.461,14.253-7.383c3.44-4.922,5.161-11.644,5.161-20.166
			c0-18.138-6.472-27.207-19.414-27.207c-5.925,0-10.653,2.416-14.185,7.246C708.574,173.436,706.809,180.089,706.809,188.566z"/>
		<path d="M861.643,225.275v-5.4c-4.512,4.512-11.074,6.768-19.688,6.768c-9.16,0-16.589-3.281-22.285-9.844
			c-5.697-6.562-8.545-15.312-8.545-26.25c0-10.982,3.281-20.359,9.844-28.13c6.562-7.77,14.378-11.655,23.447-11.655
			c7.564,0,13.307,1.777,17.227,5.332v-33.975h12.988v103.154H861.643z M861.643,169.083c-3.281-4.922-7.771-7.383-13.467-7.383
			c-6.973,0-12.612,2.598-16.919,7.793s-6.46,11.804-6.46,19.824c0,17.637,8.021,26.455,24.062,26.455
			c2.051,0,4.512-0.649,7.383-1.948s4.671-2.677,5.4-4.136V169.083z"/>
		<path d="M954.885,190.001h-52.773c0,8.568,2.347,15.153,7.041,19.756c4.146,4.011,9.479,6.016,15.996,6.016
			c7.428,0,13.626-2.164,18.594-6.494l5.469,9.365c-2.006,2.006-5.082,3.737-9.229,5.195c-5.195,1.914-10.983,2.871-17.363,2.871
			c-9.206,0-17.021-3.121-23.447-9.365c-7.155-6.881-10.732-16.133-10.732-27.754c0-12.076,3.668-21.761,11.006-29.053
			c6.562-6.517,14.332-9.775,23.311-9.775c10.436,0,18.616,2.939,24.541,8.818c5.742,5.651,8.613,13.148,8.613,22.49
			C955.91,184.943,955.568,187.586,954.885,190.001z M923.371,161.701c-5.788,0-10.642,1.869-14.561,5.605
			c-3.737,3.555-5.856,7.976-6.357,13.262h40.537c0-5.24-1.641-9.615-4.922-13.125C934.468,163.615,929.568,161.701,923.371,161.701
			z"/>
		<path d="M1026.457,137.501v27.822h33.086v11.621h-33.086v36.094h45.391v12.305h-59.062V125.197h59.814v12.305H1026.457z"/>
		<path d="M1081.965,220.968l4.58-12.305c7.246,4.74,13.079,7.109,17.5,7.109c8.021,0,12.031-3.372,12.031-10.117
			c0-4.83-3.874-8.978-11.621-12.441c-5.971-2.734-9.992-4.808-12.065-6.221c-2.074-1.412-3.874-3.019-5.4-4.819
			c-1.527-1.8-2.666-3.714-3.418-5.742c-0.752-2.027-1.128-4.204-1.128-6.528c0-6.016,2.188-10.709,6.562-14.082
			c4.375-3.372,10.094-5.059,17.158-5.059c5.332,0,12.054,1.687,20.166,5.059l-3.691,12.031c-5.15-4.102-10.322-6.152-15.518-6.152
			c-3.1,0-5.708,0.729-7.827,2.188c-2.119,1.459-3.179,3.305-3.179,5.537c0,4.694,2.666,8.249,7.998,10.664l9.297,4.238
			c5.696,2.598,9.844,5.561,12.441,8.887c2.598,3.327,3.896,7.497,3.896,12.51c0,6.562-2.302,11.701-6.904,15.415
			c-4.604,3.715-10.983,5.571-19.141,5.571C1096.001,226.71,1088.755,224.796,1081.965,220.968z"/>
		<path d="M1148.068,162.384h-8.477V152.13h8.477v-15.312l12.988-4.99v20.303h20.098v10.254h-20.098v36.367
			c0,6.152,1.036,10.527,3.11,13.125c2.073,2.598,5.411,3.896,10.015,3.896c3.326,0,6.768-0.843,10.322-2.529l1.914,11.416
			c-5.378,1.367-11.279,2.051-17.705,2.051c-5.788,0-10.676-2.153-14.663-6.46c-3.988-4.307-5.981-9.741-5.981-16.304V162.384z"/>
		<path d="M1240.285,216.935c-5.195,6.518-13.148,9.775-23.857,9.775c-5.742,0-10.722-2.085-14.937-6.255
			c-4.216-4.17-6.323-9.354-6.323-15.552c0-7.428,3.247-13.706,9.741-18.833s14.776-7.69,24.849-7.69
			c2.734,0,5.833,0.593,9.297,1.777c0-11.849-5.287-17.773-15.859-17.773c-8.112,0-14.355,2.188-18.73,6.562l-5.469-10.869
			c2.461-2.005,5.867-3.726,10.22-5.161c4.352-1.436,8.511-2.153,12.476-2.153c10.618,0,18.331,2.416,23.14,7.246
			c4.808,4.831,7.212,12.51,7.212,23.037v26.25c0,6.426,1.914,10.71,5.742,12.852v6.494c-5.287,0-9.24-0.752-11.86-2.256
			C1243.304,222.882,1241.424,220.399,1240.285,216.935z M1239.055,189.386c-4.102-0.911-6.973-1.367-8.613-1.367
			c-6.562,0-11.918,1.687-16.064,5.059c-4.147,3.373-6.221,7.36-6.221,11.963c0,7.611,4.488,11.416,13.467,11.416
			c6.562,0,12.373-3.121,17.432-9.365V189.386z"/>
		<path d="M1318.898,225.275v-5.4c-4.512,4.512-11.074,6.768-19.688,6.768c-9.16,0-16.589-3.281-22.285-9.844
			c-5.697-6.562-8.545-15.312-8.545-26.25c0-10.982,3.281-20.359,9.844-28.13c6.562-7.77,14.378-11.655,23.447-11.655
			c7.564,0,13.307,1.777,17.227,5.332v-33.975h12.988v103.154H1318.898z M1318.898,169.083c-3.281-4.922-7.771-7.383-13.467-7.383
			c-6.973,0-12.612,2.598-16.919,7.793s-6.46,11.804-6.46,19.824c0,17.637,8.021,26.455,24.062,26.455
			c2.051,0,4.512-0.649,7.383-1.948s4.671-2.677,5.4-4.136V169.083z"/>
		<path d="M1356.77,225.343v-62.275h-10.049V152.13h23.242v73.213H1356.77z M1378.166,114.738l-15.449,22.764h-9.57l11.553-22.764
			H1378.166z"/>
		<path d="M1385.617,220.968l4.58-12.305c7.246,4.74,13.079,7.109,17.5,7.109c8.021,0,12.031-3.372,12.031-10.117
			c0-4.83-3.874-8.978-11.621-12.441c-5.971-2.734-9.992-4.808-12.065-6.221c-2.074-1.412-3.874-3.019-5.4-4.819
			c-1.527-1.8-2.666-3.714-3.418-5.742c-0.752-2.027-1.128-4.204-1.128-6.528c0-6.016,2.188-10.709,6.562-14.082
			c4.375-3.372,10.094-5.059,17.158-5.059c5.332,0,12.054,1.687,20.166,5.059l-3.691,12.031c-5.15-4.102-10.322-6.152-15.518-6.152
			c-3.1,0-5.708,0.729-7.827,2.188c-2.119,1.459-3.179,3.305-3.179,5.537c0,4.694,2.666,8.249,7.998,10.664l9.297,4.238
			c5.696,2.598,9.844,5.561,12.441,8.887c2.598,3.327,3.896,7.497,3.896,12.51c0,6.562-2.302,11.701-6.904,15.415
			c-4.604,3.715-10.983,5.571-19.141,5.571C1399.653,226.71,1392.407,224.796,1385.617,220.968z"/>
		<path d="M1451.721,162.384h-8.477V152.13h8.477v-15.312l12.988-4.99v20.303h20.098v10.254h-20.098v36.367
			c0,6.152,1.036,10.527,3.11,13.125c2.073,2.598,5.411,3.896,10.015,3.896c3.326,0,6.768-0.843,10.322-2.529l1.914,11.416
			c-5.378,1.367-11.279,2.051-17.705,2.051c-5.788,0-10.676-2.153-14.663-6.46c-3.988-4.307-5.981-9.741-5.981-16.304V162.384z"/>
		<path d="M1508.869,225.343v-62.275h-10.049V152.13h23.037v73.213H1508.869z M1515.979,124.445c2.232,0,4.136,0.786,5.708,2.358
			s2.358,3.452,2.358,5.64c0,2.233-0.786,4.136-2.358,5.708s-3.476,2.358-5.708,2.358c-2.188,0-4.067-0.786-5.64-2.358
			s-2.358-3.475-2.358-5.708c0-2.232,0.774-4.124,2.324-5.674C1511.854,125.22,1513.745,124.445,1515.979,124.445z"/>
		<path d="M1597.736,158.078l-6.426,9.16c-1.322-1.321-3.657-2.574-7.007-3.76c-3.35-1.185-6.643-1.777-9.878-1.777
			c-7.064,0-12.67,2.473-16.816,7.417c-4.147,4.945-6.221,11.724-6.221,20.337c0,8.568,2.119,15.097,6.357,19.585
			c4.238,4.489,10.117,6.733,17.637,6.733c5.833,0,11.712-2.256,17.637-6.768l5.127,10.938c-6.973,4.512-15.609,6.768-25.908,6.768
			c-9.98,0-18.229-3.35-24.746-10.049c-6.518-6.699-9.775-15.768-9.775-27.207c0-11.666,3.384-21.031,10.151-28.096
			c6.768-7.063,16.03-10.596,27.788-10.596c3.782,0,7.884,0.798,12.305,2.393C1592.381,154.751,1595.64,156.392,1597.736,158.078z"
			/>
		<path d="M1653.176,216.935c-5.195,6.518-13.148,9.775-23.857,9.775c-5.742,0-10.722-2.085-14.937-6.255
			c-4.216-4.17-6.323-9.354-6.323-15.552c0-7.428,3.247-13.706,9.741-18.833s14.776-7.69,24.849-7.69
			c2.734,0,5.833,0.593,9.297,1.777c0-11.849-5.287-17.773-15.859-17.773c-8.112,0-14.355,2.188-18.73,6.562l-5.469-10.869
			c2.461-2.005,5.867-3.726,10.22-5.161c4.352-1.436,8.511-2.153,12.476-2.153c10.618,0,18.331,2.416,23.14,7.246
			c4.808,4.831,7.212,12.51,7.212,23.037v26.25c0,6.426,1.914,10.71,5.742,12.852v6.494c-5.287,0-9.24-0.752-11.86-2.256
			C1656.194,222.882,1654.314,220.399,1653.176,216.935z M1651.945,189.386c-4.102-0.911-6.973-1.367-8.613-1.367
			c-6.562,0-11.918,1.687-16.064,5.059c-4.147,3.373-6.221,7.36-6.221,11.963c0,7.611,4.488,11.416,13.467,11.416
			c6.562,0,12.373-3.121,17.432-9.365V189.386z"/>
		<path d="M1680.588,220.968l4.58-12.305c7.246,4.74,13.079,7.109,17.5,7.109c8.021,0,12.031-3.372,12.031-10.117
			c0-4.83-3.874-8.978-11.621-12.441c-5.971-2.734-9.992-4.808-12.065-6.221c-2.074-1.412-3.874-3.019-5.4-4.819
			c-1.527-1.8-2.666-3.714-3.418-5.742c-0.752-2.027-1.128-4.204-1.128-6.528c0-6.016,2.188-10.709,6.562-14.082
			c4.375-3.372,10.094-5.059,17.158-5.059c5.332,0,12.054,1.687,20.166,5.059l-3.691,12.031c-5.15-4.102-10.322-6.152-15.518-6.152
			c-3.1,0-5.708,0.729-7.827,2.188c-2.119,1.459-3.179,3.305-3.179,5.537c0,4.694,2.666,8.249,7.998,10.664l9.297,4.238
			c5.696,2.598,9.844,5.561,12.441,8.887c2.598,3.327,3.896,7.497,3.896,12.51c0,6.562-2.302,11.701-6.904,15.415
			c-4.604,3.715-10.983,5.571-19.141,5.571C1694.624,226.71,1687.378,224.796,1680.588,220.968z"/>
		<path d="M289.27,393.275v-5.4c-4.512,4.512-11.074,6.768-19.688,6.768c-9.16,0-16.589-3.281-22.285-9.844
			c-5.697-6.562-8.545-15.312-8.545-26.25c0-10.982,3.281-20.359,9.844-28.131c6.562-7.77,14.378-11.654,23.447-11.654
			c7.564,0,13.307,1.777,17.227,5.332v-33.975h12.988v103.154H289.27z M289.27,337.084c-3.281-4.922-7.771-7.383-13.467-7.383
			c-6.973,0-12.612,2.598-16.919,7.793s-6.46,11.803-6.46,19.824c0,17.637,8.021,26.455,24.062,26.455
			c2.051,0,4.512-0.65,7.383-1.949s4.671-2.676,5.4-4.135V337.084z"/>
		<path d="M382.512,358.002h-52.773c0,8.568,2.347,15.152,7.041,19.756c4.146,4.01,9.479,6.016,15.996,6.016
			c7.428,0,13.626-2.164,18.594-6.494l5.469,9.365c-2.006,2.006-5.082,3.736-9.229,5.195c-5.195,1.914-10.983,2.871-17.363,2.871
			c-9.206,0-17.021-3.121-23.447-9.365c-7.155-6.881-10.732-16.133-10.732-27.754c0-12.076,3.668-21.762,11.006-29.053
			c6.562-6.518,14.332-9.775,23.311-9.775c10.436,0,18.616,2.939,24.541,8.818c5.742,5.65,8.613,13.148,8.613,22.49
			C383.537,352.943,383.195,355.586,382.512,358.002z M350.998,329.701c-5.788,0-10.642,1.869-14.561,5.605
			c-3.737,3.555-5.856,7.975-6.357,13.262h40.537c0-5.24-1.641-9.615-4.922-13.125C362.095,331.615,357.195,329.701,350.998,329.701
			z"/>
		<path d="M454.084,354.789v38.555h-13.672V293.197c10.345-0.455,16.588-0.684,18.73-0.684c29.075,0,43.613,9.73,43.613,29.189
			c0,22.514-12.852,33.77-38.555,33.77C462.651,355.473,459.279,355.244,454.084,354.789z M454.084,305.502v36.982
			c5.787,0.455,8.841,0.684,9.16,0.684c16.953,0,25.43-6.676,25.43-20.029c0-12.213-9.047-18.32-27.139-18.32
			C459.712,304.818,457.229,305.047,454.084,305.502z"/>
		<path d="M529.758,320.131v46.689c0,11.303,4.898,16.953,14.697,16.953c4.283,0,8.203-1.23,11.758-3.691s5.901-5.309,7.041-8.545
			v-51.406h12.988v73.213h-12.988v-10.117c-1.459,2.871-4.387,5.502-8.784,7.895c-4.398,2.393-8.693,3.59-12.886,3.59
			c-8.021,0-14.162-2.301-18.423-6.904c-4.262-4.604-6.392-11.143-6.392-19.619v-48.057H529.758z"/>
		<path d="M655.607,358.002h-52.773c0,8.568,2.347,15.152,7.041,19.756c4.146,4.01,9.479,6.016,15.996,6.016
			c7.428,0,13.626-2.164,18.594-6.494l5.469,9.365c-2.006,2.006-5.082,3.736-9.229,5.195c-5.195,1.914-10.983,2.871-17.363,2.871
			c-9.206,0-17.021-3.121-23.447-9.365c-7.155-6.881-10.732-16.133-10.732-27.754c0-12.076,3.668-21.762,11.006-29.053
			c6.562-6.518,14.332-9.775,23.311-9.775c10.436,0,18.616,2.939,24.541,8.818c5.742,5.65,8.613,13.148,8.613,22.49
			C656.633,352.943,656.291,355.586,655.607,358.002z M624.094,329.701c-5.788,0-10.642,1.869-14.561,5.605
			c-3.737,3.555-5.856,7.975-6.357,13.262h40.537c0-5.24-1.641-9.615-4.922-13.125C635.19,331.615,630.291,329.701,624.094,329.701z
			"/>
		<path d="M710.09,332.641c-2.826-1.959-5.674-2.939-8.545-2.939c-4.604,0-8.625,2.119-12.065,6.357
			c-3.441,4.238-5.161,9.342-5.161,15.312v41.973H671.33v-73.213h12.988v11.689c4.739-8.705,11.78-13.057,21.123-13.057
			c2.324,0,5.674,0.41,10.049,1.23L710.09,332.641z"/>
		<path d="M729.367,330.385h-8.477v-10.254h8.477v-15.312l12.988-4.99v20.303h20.098v10.254h-20.098v36.367
			c0,6.152,1.036,10.527,3.11,13.125c2.073,2.598,5.411,3.896,10.015,3.896c3.326,0,6.768-0.844,10.322-2.529l1.914,11.416
			c-5.378,1.367-11.279,2.051-17.705,2.051c-5.788,0-10.676-2.154-14.663-6.461c-3.988-4.307-5.981-9.74-5.981-16.303V330.385z"/>
		<path d="M775.441,356.566c0-11.303,3.042-20.428,9.126-27.379c6.084-6.949,14.093-10.424,24.028-10.424
			c10.481,0,18.616,3.338,24.404,10.014c5.787,6.678,8.682,15.939,8.682,27.789c0,11.803-2.963,21.111-8.887,27.924
			c-5.925,6.814-13.991,10.221-24.199,10.221c-10.437,0-18.571-3.441-24.404-10.322
			C778.357,377.508,775.441,368.232,775.441,356.566z M789.113,356.566c0,18.365,6.494,27.549,19.482,27.549
			c6.061,0,10.812-2.461,14.253-7.383c3.44-4.922,5.161-11.645,5.161-20.166c0-18.139-6.472-27.207-19.414-27.207
			c-5.925,0-10.653,2.416-14.185,7.246C790.879,341.436,789.113,348.09,789.113,356.566z"/>
		<path d="M954.133,393.344l-26.729-42.998c-3.054,0-7.885-0.229-14.492-0.684v43.682H899.24V293.197
			c0.501,0,4.044-0.172,10.63-0.514c6.585-0.342,11.382-0.512,14.39-0.512c24.062,0,36.094,9.57,36.094,28.711
			c0,6.289-1.938,11.951-5.811,16.986c-3.874,5.037-8.477,8.17-13.809,9.4l29.053,46.074H954.133z M912.912,305.502v32.539
			c3.281,0.455,6.471,0.684,9.57,0.684c8.203,0,14.173-1.322,17.91-3.965c3.736-2.643,5.605-7.359,5.605-14.15
			c0-5.605-2.006-9.639-6.016-12.1c-4.011-2.461-10.346-3.691-19.004-3.691C919.611,304.818,916.922,305.047,912.912,305.502z"/>
		<path d="M985.305,393.344v-62.275h-10.049v-10.938h23.037v73.213H985.305z M992.414,292.445c2.232,0,4.136,0.785,5.708,2.357
			s2.358,3.453,2.358,5.641c0,2.232-0.786,4.135-2.358,5.707s-3.476,2.359-5.708,2.359c-2.188,0-4.067-0.787-5.64-2.359
			s-2.358-3.475-2.358-5.707s0.774-4.125,2.324-5.674C988.289,293.221,990.181,292.445,992.414,292.445z"/>
		<path d="M1074.172,326.078l-6.426,9.16c-1.322-1.322-3.657-2.574-7.007-3.76s-6.643-1.777-9.878-1.777
			c-7.064,0-12.67,2.473-16.816,7.416c-4.147,4.945-6.221,11.725-6.221,20.338c0,8.568,2.119,15.096,6.357,19.584
			c4.238,4.49,10.117,6.734,17.637,6.734c5.833,0,11.712-2.256,17.637-6.768l5.127,10.938c-6.973,4.512-15.609,6.768-25.908,6.768
			c-9.98,0-18.229-3.35-24.746-10.049c-6.518-6.699-9.775-15.768-9.775-27.207c0-11.666,3.384-21.031,10.151-28.096
			s16.03-10.596,27.788-10.596c3.782,0,7.884,0.797,12.305,2.393C1068.816,322.752,1072.075,324.393,1074.172,326.078z"/>
		<path d="M1083.469,356.566c0-11.303,3.042-20.428,9.126-27.379c6.084-6.949,14.093-10.424,24.028-10.424
			c10.481,0,18.616,3.338,24.404,10.014c5.787,6.678,8.682,15.939,8.682,27.789c0,11.803-2.963,21.111-8.887,27.924
			c-5.925,6.814-13.991,10.221-24.199,10.221c-10.437,0-18.571-3.441-24.404-10.322
			C1086.385,377.508,1083.469,368.232,1083.469,356.566z M1097.141,356.566c0,18.365,6.494,27.549,19.482,27.549
			c6.061,0,10.812-2.461,14.253-7.383c3.44-4.922,5.161-11.645,5.161-20.166c0-18.139-6.472-27.207-19.414-27.207
			c-5.925,0-10.653,2.416-14.185,7.246C1098.906,341.436,1097.141,348.09,1097.141,356.566z"/>
	</g>
</g>
<g>
</g>
<radialGradient id="SVGID_1_" cx="-254.1558" cy="677.0654" r="156.8862" fx="-277.2593" fy="641.3613" gradientTransform="matrix(0.6682 0 0 -0.6682 263.4957 546.1049)" gradientUnits="userSpaceOnUse">
	<stop  offset="0.054" style="stop-color:#FFFFFF"/>
	<stop  offset="0.1623" style="stop-color:#FAFBF5"/>
	<stop  offset="0.3551" style="stop-color:#ECF3D6"/>
	<stop  offset="0.6098" style="stop-color:#D6E6A4"/>
	<stop  offset="0.9135" style="stop-color:#B5D160"/>
	<stop  offset="1" style="stop-color:#ACCC4A"/>
</radialGradient>
<path fill="url(#SVGID_1_)" d="M104.839,0c57.886,0,104.839,47.018,104.839,104.842c0,57.946-46.953,104.838-104.839,104.838
	C46.972,209.68,0,162.788,0,104.842C0,47.018,46.972,0,104.839,0z"/>
<g>
	<g>
		<polygon fill="#B3AAD3" points="56.465,555.162 3.332,525.709 3.332,489.33 56.465,516.281 		"/>
		<g>
			<path fill="#422564" d="M57.223,553.867c-17.711-9.818-35.423-19.636-53.134-29.453c0.248,0.432,0.495,0.863,0.743,1.295
				c0-12.126,0-24.253,0-36.379c-0.752,0.432-1.505,0.863-2.257,1.295c17.711,8.984,35.423,17.968,53.134,26.951
				c-0.248-0.432-0.495-0.863-0.743-1.295c0,12.96,0,25.921,0,38.881c0,1.935,3,1.935,3,0c0-12.96,0-25.921,0-38.881
				c0-0.504-0.28-1.061-0.743-1.295c-17.711-8.984-35.423-17.968-53.134-26.951c-0.997-0.506-2.257,0.106-2.257,1.295
				c0,12.126,0,24.253,0,36.379c0,0.52,0.284,1.041,0.743,1.295c17.711,9.818,35.423,19.636,53.134,29.453
				C57.401,557.396,58.915,554.805,57.223,553.867z"/>
		</g>
	</g>
	<g>
		<g>
			<g>
				<polygon fill="#2D2B7D" points="219.47,504.26 56.465,555.162 56.465,516.281 219.373,466.496 				"/>
				<g>
					<path fill="#422564" d="M219.071,502.813c-18.336,5.726-36.672,11.452-55.008,17.178
						c-29.251,9.135-58.502,18.269-87.753,27.403c-6.748,2.107-13.495,4.214-20.243,6.321c0.633,0.482,1.266,0.964,1.899,1.446
						c0-12.96,0-25.921,0-38.881c-0.367,0.482-0.734,0.964-1.101,1.446c18.384-5.618,36.769-11.236,55.153-16.854
						c29.26-8.942,58.52-17.884,87.779-26.826c6.659-2.034,13.317-4.069,19.976-6.104c-0.633-0.482-1.266-0.964-1.899-1.446
						c0.032,12.588,0.064,25.176,0.097,37.764c0.005,1.935,3.005,1.935,3,0c-0.032-12.588-0.064-25.176-0.097-37.764
						c-0.002-0.954-0.959-1.733-1.899-1.446c-18.384,5.618-36.769,11.236-55.153,16.854c-29.26,8.942-58.52,17.884-87.779,26.826
						c-6.659,2.034-13.317,4.069-19.976,6.104c-0.641,0.195-1.101,0.765-1.101,1.446c0,12.96,0,25.921,0,38.881
						c0,0.95,0.962,1.739,1.899,1.446c18.336-5.726,36.672-11.452,55.008-17.178c29.251-9.135,58.502-18.269,87.753-27.403
						c6.748-2.107,13.495-4.214,20.243-6.321C221.709,505.132,220.923,502.235,219.071,502.813z"/>
				</g>
			</g>
		</g>
	</g>
	<g>
		<g>
			<g>
				<polygon fill="#59469B" points="219.373,466.496 56.465,516.281 3.332,489.33 153.575,448.875 				"/>
				<g>
					<path fill="#422564" d="M218.974,465.05c-18.384,5.618-36.769,11.236-55.153,16.854c-29.26,8.942-58.52,17.884-87.779,26.826
						c-6.571,2.008-13.141,4.016-19.711,6.023c-0.686,0.21,0.118-0.16,0.886,0.229c-0.306-0.155-0.613-0.311-0.919-0.466
						c-1.848-0.938-3.696-1.875-5.543-2.812c-6.626-3.36-13.251-6.721-19.877-10.082c-8.93-4.529-17.859-9.059-26.789-13.588
						c-0.12,0.914-0.239,1.827-0.358,2.741c19.688-5.302,39.377-10.603,59.066-15.904c27.596-7.431,55.192-14.861,82.788-22.292
						c2.602-0.7,5.205-1.401,7.807-2.102c1.28-0.345-0.699-0.287,0.155-0.059c1.486,0.398,2.973,0.797,4.46,1.195
						c14.252,3.816,28.505,7.634,42.758,11.45c6.07,1.626,12.14,3.251,18.21,4.877c1.872,0.501,2.665-2.393,0.798-2.893
						c-21.894-5.863-43.789-11.727-65.683-17.59c-1.303-0.35-3.281,0.606-4.5,0.935c-3.972,1.069-7.944,2.139-11.916,3.208
						c-13.424,3.614-26.847,7.229-40.271,10.844c-28.116,7.57-56.232,15.142-84.349,22.712c-3.374,0.908-6.748,1.817-10.122,2.726
						c-1.203,0.324-1.539,2.143-0.358,2.741c10.407,5.279,20.814,10.558,31.221,15.836c6.061,3.074,12.121,6.148,18.181,9.223
						c1.616,0.819,3.615,2.434,5.478,1.864c20.954-6.404,41.907-12.808,62.861-19.211c28.333-8.659,56.667-17.317,85-25.977
						c4.819-1.473,9.638-2.945,14.457-4.418C221.616,467.379,220.83,464.482,218.974,465.05z"/>
				</g>
			</g>
		</g>
	</g>
</g>
<g>
	<g>
		<polygon fill="#B3AAD3" points="56.465,494.732 3.332,464.885 3.332,429.672 56.465,457.154 		"/>
		<g>
			<path fill="#422564" d="M57.223,493.438C39.511,483.488,21.8,473.539,4.089,463.59c0.248,0.432,0.495,0.863,0.743,1.295
				c0-11.737,0-23.476,0-35.213c-0.752,0.432-1.505,0.863-2.257,1.295c17.711,9.161,35.423,18.322,53.134,27.482
				c-0.248-0.432-0.495-0.863-0.743-1.295c0,12.526,0,25.052,0,37.578c0,1.935,3,1.935,3,0c0-12.526,0-25.052,0-37.578
				c0-0.507-0.281-1.056-0.743-1.295c-17.711-9.161-35.423-18.322-53.134-27.482c-0.995-0.515-2.257,0.113-2.257,1.295
				c0,11.737,0,23.476,0,35.213c0,0.521,0.285,1.038,0.743,1.295c17.711,9.949,35.423,19.898,53.134,29.848
				C57.397,496.977,58.909,494.385,57.223,493.438z"/>
		</g>
	</g>
	<g>
		<polygon fill="#2D2B7D" points="160.283,463.801 56.483,494.732 56.465,457.154 160.283,429.508 		"/>
		<g>
			<path fill="#422564" d="M159.884,462.354c-23.182,6.908-46.364,13.816-69.546,20.725c-11.417,3.402-22.835,6.805-34.253,10.207
				c0.633,0.482,1.266,0.964,1.899,1.446c-0.006-12.526-0.012-25.052-0.018-37.578c-0.367,0.482-0.734,0.964-1.101,1.446
				c23.373-6.224,46.746-12.448,70.119-18.673c11.233-2.991,22.466-5.982,33.699-8.974c-0.633-0.482-1.266-0.964-1.899-1.446
				c0,11.431,0,22.862,0,34.293c0,1.935,3,1.935,3,0c0-11.431,0-22.862,0-34.293c0-0.981-0.957-1.697-1.899-1.446
				c-23.373,6.224-46.746,12.448-70.119,18.673c-11.233,2.991-22.466,5.982-33.699,8.974c-0.644,0.171-1.102,0.783-1.101,1.446
				c0.006,12.526,0.012,25.052,0.018,37.578c0,0.96,0.96,1.727,1.899,1.446c23.182-6.908,46.364-13.816,69.546-20.725
				c11.417-3.402,22.835-6.805,34.253-10.207C162.531,464.696,161.743,461.801,159.884,462.354z"/>
		</g>
	</g>
	<g>
		<polygon fill="#59469B" points="160.283,429.508 56.465,457.174 3.332,429.672 96.315,407.984 		"/>
		<g>
			<path fill="#422564" d="M159.884,428.062c-23.373,6.229-46.746,12.457-70.119,18.686c-10.731,2.86-21.463,5.72-32.194,8.579
				c-0.384,0.103-0.768,0.205-1.151,0.308c-0.851,0.227,0.297-0.017,0.759,0.222c-1.138-0.589-2.275-1.178-3.414-1.767
				c-5.942-3.075-11.885-6.151-17.828-9.228c-10.616-5.495-21.232-10.989-31.849-16.484c-0.12,0.914-0.239,1.827-0.358,2.741
				c24.177-5.639,48.354-11.278,72.531-16.917c5.405-1.261,10.81-2.521,16.215-3.782c1.254-0.292,2.509-0.585,3.764-0.878
				c0.746-0.174,0.349,0.116-0.319-0.108c0.289,0.097,0.577,0.194,0.866,0.291c12.331,4.149,24.661,8.298,36.992,12.447
				c8.702,2.928,17.403,5.855,26.105,8.783c1.839,0.619,2.621-2.279,0.798-2.893c-21.309-7.17-42.618-14.34-63.926-21.51
				c-0.613-0.206-1.527,0.146-2.131,0.287c-1.617,0.377-3.233,0.755-4.85,1.132c-5.893,1.374-11.785,2.748-17.678,4.123
				c-15.542,3.625-31.084,7.25-46.626,10.875c-7.513,1.752-15.025,3.504-22.539,5.257c-1.239,0.289-1.502,2.149-0.358,2.741
				C12.9,436.312,23.226,441.656,33.551,447c6.074,3.145,12.148,6.288,18.222,9.432c1.886,0.977,3.77,2.541,5.924,1.967
				c25.593-6.82,51.187-13.641,76.781-20.461c8.735-2.328,17.47-4.655,26.205-6.983C162.55,430.457,161.756,427.562,159.884,428.062
				z"/>
		</g>
	</g>
</g>
<g>
	<g>
		<g>
			<polygon fill="#59469B" points="204.703,359.193 57.547,395.121 3.332,373.316 131.912,339.543 			"/>
			<g>
				<path fill="#422564" d="M204.304,357.747c-20.101,4.907-40.201,9.814-60.302,14.723c-26.974,6.586-53.949,13.171-80.923,19.757
					c-1.959,0.479-3.919,0.957-5.878,1.436c0.142-0.035,1.128,0.167,0.418-0.118c-0.602-0.242-1.204-0.484-1.805-0.727
					c-2.348-0.944-4.696-1.889-7.043-2.833c-13.617-5.477-27.235-10.953-40.852-16.43c-1.396-0.562-2.792-1.123-4.188-1.685
					c0,0.964,0,1.929,0,2.893c21.51-5.65,43.021-11.3,64.532-16.95c14.743-3.872,29.486-7.745,44.229-11.617
					c4.826-1.268,9.652-2.535,14.478-3.803c1.333-0.351,2.667-0.701,4.001-1.052c0.333-0.087,0.665-0.174,0.998-0.262
					c0.618-0.162,0.211,0.09-0.438-0.085c23.44,6.327,46.88,12.655,70.32,18.983c0.818,0.221,1.636,0.441,2.454,0.662
					c1.871,0.505,2.664-2.389,0.798-2.893c-23.316-6.294-46.631-12.589-69.947-18.883c-1.709-0.461-2.96-0.946-4.673-0.497
					c-3.245,0.853-6.49,1.705-9.734,2.557c-13.281,3.488-26.562,6.978-39.842,10.466c-25.388,6.668-50.775,13.336-76.162,20.005
					c-0.604,0.158-1.208,0.316-1.811,0.476c-1.561,0.41-1.29,2.374,0,2.893c10.873,4.373,21.746,8.746,32.618,13.118
					c6.132,2.467,12.265,4.934,18.397,7.399c1.819,0.731,3.088,1.51,4.996,1.043c23.304-5.689,46.608-11.379,69.912-17.068
					c24.678-6.025,49.357-12.051,74.036-18.075c0.736-0.181,1.473-0.36,2.21-0.54C206.98,360.181,206.183,357.288,204.304,357.747z"
					/>
			</g>
		</g>
		<g>
			<polygon fill="#B3AAD3" points="57.547,434.008 3.332,409.58 3.332,373.316 57.547,395.121 			"/>
			<g>
				<path fill="#422564" d="M58.304,432.713c-18.071-8.143-36.144-16.285-54.215-24.428c0.248,0.432,0.495,0.863,0.743,1.295
					c0-12.088,0-24.176,0-36.264c-0.633,0.482-1.266,0.964-1.899,1.446c18.072,7.269,36.144,14.536,54.215,21.805
					c-0.367-0.482-0.734-0.964-1.101-1.446c0,12.962,0,25.925,0,38.887c0,1.935,3,1.935,3,0c0-12.962,0-25.925,0-38.887
					c0-0.726-0.471-1.193-1.101-1.446c-18.072-7.269-36.144-14.536-54.215-21.805c-0.923-0.371-1.899,0.556-1.899,1.446
					c0,12.088,0,24.176,0,36.264c0,0.485,0.276,1.085,0.743,1.295c18.072,8.143,36.144,16.285,54.216,24.428
					C58.539,436.091,60.065,433.506,58.304,432.713z"/>
			</g>
		</g>
	</g>
	<g>
		<polygon fill="#2D2B7D" points="204.703,396.572 57.547,434.008 57.547,395.121 204.703,359.193 		"/>
		<g>
			<path fill="#422564" d="M204.304,395.126c-20.031,5.096-40.062,10.191-60.092,15.287c-26.984,6.864-53.967,13.729-80.951,20.593
				c-2.038,0.519-4.076,1.037-6.113,1.556c0.633,0.482,1.266,0.964,1.899,1.446c0-12.962,0-25.925,0-38.887
				c-0.367,0.482-0.734,0.964-1.101,1.446c20.101-4.907,40.201-9.814,60.302-14.723c26.974-6.586,53.949-13.171,80.923-19.757
				c1.977-0.482,3.954-0.966,5.931-1.448c-0.633-0.482-1.266-0.964-1.899-1.446c0,12.46,0,24.919,0,37.379c0,1.935,3,1.935,3,0
				c0-12.46,0-24.919,0-37.379c0-0.997-0.955-1.677-1.899-1.446c-20.101,4.907-40.201,9.814-60.302,14.723
				c-26.974,6.586-53.949,13.171-80.923,19.757c-1.977,0.482-3.954,0.966-5.931,1.448c-0.646,0.157-1.101,0.794-1.101,1.446
				c0,12.962,0,25.925,0,38.887c0,0.989,0.956,1.687,1.899,1.446c20.031-5.096,40.062-10.191,60.092-15.287
				c26.983-6.864,53.967-13.729,80.95-20.593c2.038-0.519,4.076-1.037,6.113-1.556C206.975,397.542,206.18,394.648,204.304,395.126z
				"/>
		</g>
	</g>
</g>
<g>
	<polygon fill="#59469B" points="139.285,313.639 56.923,334.773 4.794,313.803 81.403,298.055 	"/>
	<g>
		<path fill="#422564" d="M138.886,312.192c-24.087,6.181-48.175,12.362-72.262,18.543c-3.322,0.853-6.644,1.705-9.965,2.558
			c-0.501,0.129,1.138,0.225,0.403-0.071c-0.585-0.235-1.171-0.471-1.756-0.706c-2.368-0.952-4.735-1.905-7.103-2.857
			c-13.385-5.385-26.77-10.769-40.154-16.153c-0.952-0.383-1.903-0.766-2.855-1.148c0,0.964,0,1.929,0,2.893
			c24.006-4.935,48.012-9.869,72.018-14.804c1.396-0.287,2.792-0.574,4.187-0.861c0.741-0.152,0.098,0.049-0.345-0.07
			c0.415,0.111,0.829,0.224,1.243,0.335c5.449,1.467,10.898,2.935,16.348,4.401c13.082,3.522,26.164,7.045,39.247,10.567
			c0.332,0.089,0.664,0.179,0.996,0.268c1.871,0.504,2.664-2.391,0.798-2.893c-11.248-3.028-22.496-6.057-33.745-9.085
			c-6.616-1.782-13.233-3.563-19.849-5.345c-2.254-0.606-4.08-1.361-6.365-0.892c-24.729,5.083-49.457,10.167-74.185,15.25
			c-0.382,0.078-0.763,0.157-1.145,0.235c-1.609,0.331-1.238,2.395,0,2.893c11.052,4.446,22.104,8.893,33.156,13.338
			c5.715,2.3,11.43,4.599,17.145,6.897c2.227,0.896,3.243,0.577,5.557-0.017c25.625-6.576,51.25-13.151,76.875-19.727
			c0.852-0.219,1.703-0.438,2.555-0.656C141.556,314.604,140.761,311.711,138.886,312.192z"/>
	</g>
</g>
<g>
	<polygon fill="#B3AAD3" points="56.923,372.193 4.794,351.031 4.794,313.76 56.923,333.158 	"/>
	<g>
		<path fill="#422564" d="M57.322,370.747c-17.376-7.054-34.753-14.108-52.129-21.162c0.367,0.482,0.734,0.964,1.101,1.446
			c0-12.424,0-24.848,0-37.271c-0.633,0.482-1.266,0.964-1.899,1.446c17.376,6.466,34.753,12.933,52.129,19.398
			c-0.367-0.482-0.734-0.964-1.101-1.446c0,13.012,0,26.023,0,39.035c0,1.935,3,1.935,3,0c0-13.012,0-26.023,0-39.035
			c0-0.712-0.467-1.211-1.101-1.446c-17.376-6.466-34.753-12.933-52.129-19.398c-0.928-0.346-1.899,0.536-1.899,1.446
			c0,12.424,0,24.848,0,37.271c0,0.727,0.472,1.191,1.101,1.446c17.376,7.054,34.753,14.108,52.129,21.162
			C58.318,374.368,59.09,371.465,57.322,370.747z"/>
	</g>
</g>
<g>
	<polygon fill="#2D2B7D" points="139.285,351.873 57.008,371.959 56.838,332.578 139.285,313.639 	"/>
	<g>
		<path fill="#422564" d="M138.886,350.427c-24.148,5.896-48.296,11.79-72.445,17.686c-3.277,0.8-6.554,1.601-9.832,2.4
			c0.633,0.482,1.266,0.964,1.899,1.446c-0.057-13.127-0.113-26.254-0.17-39.381c-0.367,0.482-0.734,0.964-1.101,1.446
			c24.284-5.578,48.567-11.157,72.852-16.735c3.198-0.734,6.396-1.47,9.595-2.204c-0.633-0.482-1.266-0.964-1.899-1.446
			c0,12.745,0,25.489,0,38.234c0,1.935,3,1.935,3,0c0-12.745,0-25.489,0-38.234c0-1.007-0.954-1.663-1.899-1.446
			c-24.284,5.578-48.567,11.157-72.852,16.735c-3.198,0.734-6.396,1.47-9.595,2.204c-0.644,0.147-1.104,0.802-1.101,1.446
			c0.057,13.127,0.113,26.254,0.17,39.381c0.004,0.996,0.952,1.678,1.899,1.446c24.148-5.896,48.296-11.79,72.445-17.686
			c3.277-0.8,6.554-1.601,9.832-2.4C141.562,352.86,140.765,349.968,138.886,350.427z"/>
	</g>
</g>
<g>
	<g>
		<polygon fill="#2D2B7D" points="219.592,273.647 56.465,312.945 56.923,274.189 220,234.884 		"/>
		<g>
			<path fill="#422564" d="M219.193,272.201c-18.892,4.551-37.784,9.103-56.676,13.653c-29.493,7.105-58.986,14.21-88.479,21.315
				c-5.99,1.442-11.98,2.886-17.971,4.329c0.633,0.482,1.266,0.964,1.899,1.446c0.153-12.919,0.305-25.837,0.458-38.756
				c-0.367,0.482-0.734,0.964-1.101,1.446c18.886-4.552,37.772-9.104,56.658-13.656c29.484-7.106,58.968-14.213,88.453-21.319
				c5.988-1.443,11.977-2.887,17.966-4.33c-0.633-0.482-1.266-0.964-1.899-1.446c-0.136,12.921-0.272,25.842-0.408,38.763
				c-0.021,1.936,2.979,1.934,3,0c0.136-12.921,0.272-25.842,0.408-38.763c0.011-1-0.963-1.672-1.899-1.446
				c-18.886,4.552-37.772,9.104-56.658,13.656c-29.484,7.106-58.968,14.213-88.453,21.319c-5.988,1.443-11.977,2.887-17.966,4.33
				c-0.651,0.157-1.093,0.794-1.101,1.446c-0.153,12.919-0.305,25.837-0.458,38.756c-0.012,1.001,0.964,1.672,1.899,1.446
				c18.892-4.551,37.784-9.103,56.676-13.653c29.493-7.105,58.986-14.21,88.479-21.315c5.99-1.443,11.98-2.886,17.971-4.33
				C221.871,274.641,221.073,271.748,219.193,272.201z"/>
		</g>
	</g>
	<g>
		<polygon fill="#59469B" points="220,234.884 56.923,274.189 4.794,254.669 150.105,222.392 		"/>
		<g>
			<path fill="#422564" d="M219.601,233.438c-18.886,4.552-37.772,9.104-56.658,13.656c-29.484,7.106-58.968,14.213-88.453,21.319
				c-5.979,1.441-11.957,2.882-17.935,4.323c0.643-0.155,1.028,0.105,0.329-0.157c-0.679-0.254-1.358-0.509-2.038-0.763
				c-2.529-0.947-5.058-1.894-7.587-2.841c-7.423-2.779-14.845-5.559-22.268-8.338c-6.6-2.471-13.199-4.942-19.798-7.414
				c0,0.964,0,1.928,0,2.893c20.413-4.534,40.826-9.068,61.239-13.603c26.53-5.893,53.061-11.786,79.591-17.679
				c1.153-0.256,2.307-0.512,3.46-0.769c0.865-0.192,1.384-0.02,0.296-0.214c3.677,0.657,7.355,1.314,11.033,1.972
				c15.129,2.704,30.258,5.408,45.387,8.112c4.467,0.798,8.935,1.597,13.402,2.395c1.892,0.338,2.7-2.553,0.798-2.893
				c-23.012-4.113-46.024-8.226-69.037-12.339c-1.468-0.262-2.602,0.057-4.05,0.378c-3.69,0.82-7.381,1.64-11.072,2.459
				c-13.376,2.971-26.753,5.942-40.129,8.914c-27.957,6.209-55.914,12.419-83.871,18.629c-2.615,0.581-5.23,1.162-7.846,1.743
				c-1.57,0.349-1.283,2.412,0,2.893c11.23,4.205,22.46,8.411,33.69,12.616c5.643,2.113,11.286,4.226,16.929,6.339
				c1.632,0.611,2.44,0.534,4.083,0.138c23.198-5.591,46.396-11.183,69.595-16.774c27.478-6.623,54.956-13.246,82.435-19.869
				c3.091-0.745,6.182-1.49,9.272-2.235C222.279,235.877,221.481,232.985,219.601,233.438z"/>
		</g>
	</g>
	<g>
		<polygon fill="#B3AAD3" points="56.923,313.088 4.794,291.949 4.794,254.669 56.923,274.189 		"/>
		<g>
			<path fill="#422564" d="M57.322,311.642c-17.376-7.046-34.753-14.093-52.129-21.139c0.367,0.482,0.734,0.964,1.101,1.446
				c0-12.427,0-24.854,0-37.28c-0.633,0.482-1.266,0.964-1.899,1.446c17.376,6.507,34.753,13.014,52.129,19.521
				c-0.367-0.482-0.734-0.964-1.101-1.446c0,12.966,0,25.933,0,38.898c0,1.935,3,1.935,3,0c0-12.966,0-25.933,0-38.898
				c0-0.713-0.468-1.209-1.101-1.446c-17.376-6.507-34.753-13.014-52.129-19.521c-0.928-0.348-1.899,0.538-1.899,1.446
				c0,12.427,0,24.854,0,37.28c0,0.727,0.472,1.191,1.101,1.446c17.376,7.046,34.753,14.093,52.129,21.139
				C58.318,315.262,59.091,312.358,57.322,311.642z"/>
		</g>
	</g>
</g>
<rect x="236" y="415.521" fill="#231F20" stroke="#231F20" stroke-miterlimit="10" width="1526.332" height="15"/>
<g>
</g>
<g>
</g>
<g>
</g>
<g>
</g>
<g>
</g>
<g>
</g>
</svg>
